<svg width="24" height="25" viewBox="0 0 24 25" fill="none" xmlns="http://www.w3.org/2000/svg">
<g id="Icon02">
<g id="Group 55030">
<path id="Vector" d="M20.4375 6.47461V21.3496C20.4375 21.9121 20.0625 22.2871 19.6875 22.2871H4.3125C3.9375 22.2871 3.5625 21.9121 3.5625 21.3496V1.97461C3.5625 1.41211 3.9375 1.03711 4.3125 1.03711H15.1875" stroke="#92BBE6" stroke-linecap="round" stroke-linejoin="round"/>
<path id="Vector_2" d="M17.4375 22.2246V23.3496C17.4375 23.9121 17.0625 24.2871 16.6875 24.2871H1.3125C0.9375 24.2871 0.5625 23.9121 0.5625 23.3496V3.97461C0.5625 3.41211 0.9375 3.03711 1.3125 3.03711H3.53076" stroke="#92BBE6" stroke-linecap="round" stroke-linejoin="round"/>
<path id="Vector_3" d="M20.4375 6.47461H15.9375C15.5625 6.47461 15.1875 6.09961 15.1875 5.72461V1.03711L20.4375 6.47461Z" stroke="#92BBE6" stroke-linecap="round" stroke-linejoin="round"/>
</g>
<g id="Group 55033">
<path id="Vector_4" d="M16.7447 10.7891H10.7861C10.576 10.7891 10.4058 10.9042 10.4058 11.0462V12.0319C10.4058 12.1739 10.576 12.2891 10.7861 12.2891H16.7447C16.9547 12.2891 17.125 12.1739 17.125 12.0319V11.0462C17.125 10.9042 16.9547 10.7891 16.7447 10.7891Z" stroke="#92BBE6" stroke-linecap="round" stroke-linejoin="round"/>
<path id="Vector_5" d="M6.91406 12.1738C7.3067 12.1738 7.625 11.8555 7.625 11.4629C7.625 11.0703 7.3067 10.752 6.91406 10.752C6.52142 10.752 6.20312 11.0703 6.20312 11.4629C6.20312 11.8555 6.52142 12.1738 6.91406 12.1738Z" stroke="#92BBE6" stroke-linecap="round" stroke-linejoin="round"/>
<path id="Vector_6" d="M16.7447 15.6914H10.7861C10.576 15.6914 10.4058 15.8065 10.4058 15.9485V16.9343C10.4058 17.0763 10.576 17.1914 10.7861 17.1914H16.7447C16.9547 17.1914 17.125 17.0763 17.125 16.9343V15.9485C17.125 15.8065 16.9547 15.6914 16.7447 15.6914Z" stroke="#92BBE6" stroke-linecap="round" stroke-linejoin="round"/>
<path id="Vector_7" d="M6.91406 17.0742C7.3067 17.0742 7.625 16.7559 7.625 16.3633C7.625 15.9706 7.3067 15.6523 6.91406 15.6523C6.52142 15.6523 6.20312 15.9706 6.20312 16.3633C6.20312 16.7559 6.52142 17.0742 6.91406 17.0742Z" stroke="#92BBE6" stroke-linecap="round" stroke-linejoin="round"/>
</g>
</g>
</svg>
