<svg width="24" height="25" viewBox="0 0 24 25" fill="none" xmlns="http://www.w3.org/2000/svg">
<g id="Icon02">
<g id="Group 55030">
<path id="Vector" d="M20.4375 6.47461V23.3496C20.4375 23.9121 20.0625 24.2871 19.6875 24.2871H4.3125C3.9375 24.2871 3.5625 23.9121 3.5625 23.3496V1.97461C3.5625 1.41211 3.9375 1.03711 4.3125 1.03711H15.1875" stroke="#92BBE6" stroke-linecap="round" stroke-linejoin="round"/>
<path id="Vector_2" d="M20.4375 6.47461H15.9375C15.5625 6.47461 15.1875 6.09961 15.1875 5.72461V1.03711L20.4375 6.47461Z" stroke="#92BBE6" stroke-linecap="round" stroke-linejoin="round"/>
</g>
<g id="Group 55049">
<path id="Vector_3" d="M13.6714 19.9662L15.2714 19.1191L14.6125 17.425C14.8008 17.1427 15.0831 16.8604 15.2714 16.578L17.0596 16.9545L17.6243 15.2604L15.8361 14.5074C15.8361 14.2251 15.8361 13.8486 15.7419 13.4722L17.3419 12.531L16.4949 10.931L14.7067 11.5898C14.5184 11.4016 14.2361 11.1193 13.9537 10.931L14.3302 9.14282L12.542 8.57812L11.8832 10.3663C11.5067 10.3663 11.2244 10.3663 10.8479 10.4604L9.90674 8.86047L8.21265 9.80164L8.96558 11.4957C8.68323 11.684 8.495 11.9663 8.30676 12.2487L6.51855 11.8722L5.95386 13.6604L7.74207 14.3192C7.64795 14.6957 7.74207 14.978 7.83618 15.3545L6.23621 16.3898L7.08325 17.9897L8.77734 17.2368C9.05969 17.5192 9.34204 17.7074 9.62439 17.8956L9.24792 19.6838L10.942 20.2485L11.6949 18.5544C12.0714 18.5544 12.3538 18.4603 12.7302 18.4603L13.7655 19.9662H13.6714Z" stroke="#92BBE6" stroke-linecap="round" stroke-linejoin="round"/>
<path id="Vector_4" d="M11.7891 15.9199C12.6207 15.9199 13.2949 15.2457 13.2949 14.4141C13.2949 13.5824 12.6207 12.9082 11.7891 12.9082C10.9574 12.9082 10.2832 13.5824 10.2832 14.4141C10.2832 15.2457 10.9574 15.9199 11.7891 15.9199Z" stroke="#92BBE6" stroke-linecap="round" stroke-linejoin="round"/>
</g>
</g>
</svg>
