<svg width="25" height="25" viewBox="0 0 25 25" fill="none" xmlns="http://www.w3.org/2000/svg">
<path d="M21.2656 6.2334V21.1084C21.2656 21.6709 20.8906 22.0459 20.5156 22.0459H5.14062C4.76562 22.0459 4.39062 21.6709 4.39062 21.1084V1.7334C4.39062 1.1709 4.76562 0.795898 5.14062 0.795898H16.0156" stroke="white" stroke-linecap="round" stroke-linejoin="round"/>
<path d="M18.2656 21.9834V23.1084C18.2656 23.6709 17.8906 24.0459 17.5156 24.0459H2.14062C1.76562 24.0459 1.39062 23.6709 1.39062 23.1084V3.7334C1.39062 3.1709 1.76562 2.7959 2.14062 2.7959H4.35889" stroke="white" stroke-linecap="round" stroke-linejoin="round"/>
<path d="M21.2656 6.2334H16.7656C16.3906 6.2334 16.0156 5.8584 16.0156 5.4834V0.795898L21.2656 6.2334Z" stroke="white" stroke-linecap="round" stroke-linejoin="round"/>
<path d="M17.5728 10.5488H11.6142C11.4042 10.5488 11.2339 10.664 11.2339 10.806V11.7917C11.2339 11.9337 11.4042 12.0488 11.6142 12.0488H17.5728C17.7828 12.0488 17.9531 11.9337 17.9531 11.7917V10.806C17.9531 10.664 17.7828 10.5488 17.5728 10.5488Z" stroke="white" stroke-linecap="round" stroke-linejoin="round"/>
<path d="M7.74219 11.9326C8.13483 11.9326 8.45312 11.6143 8.45312 11.2217C8.45312 10.829 8.13483 10.5107 7.74219 10.5107C7.34955 10.5107 7.03125 10.829 7.03125 11.2217C7.03125 11.6143 7.34955 11.9326 7.74219 11.9326Z" stroke="white" stroke-linecap="round" stroke-linejoin="round"/>
<path d="M17.5728 15.4492H11.6142C11.4042 15.4492 11.2339 15.5643 11.2339 15.7064V16.6921C11.2339 16.8341 11.4042 16.9492 11.6142 16.9492H17.5728C17.7828 16.9492 17.9531 16.8341 17.9531 16.6921V15.7064C17.9531 15.5643 17.7828 15.4492 17.5728 15.4492Z" stroke="white" stroke-linecap="round" stroke-linejoin="round"/>
<path d="M7.74219 16.833C8.13483 16.833 8.45312 16.5147 8.45312 16.1221C8.45312 15.7294 8.13483 15.4111 7.74219 15.4111C7.34955 15.4111 7.03125 15.7294 7.03125 16.1221C7.03125 16.5147 7.34955 16.833 7.74219 16.833Z" stroke="white" stroke-linecap="round" stroke-linejoin="round"/>
</svg>
