<svg width="15" height="16" viewBox="0 0 15 16" fill="none" xmlns="http://www.w3.org/2000/svg">
<g id="Icon ionic-ios-notifications">
<path id="Path 39734" d="M7.62078 15.4568L7.60659 15.4564L7.59241 15.4568C7.38786 15.4629 7.18442 15.4246 6.99603 15.3447C6.80764 15.2648 6.63876 15.1451 6.50095 14.9938C6.36315 14.8425 6.25968 14.6632 6.19765 14.4682C6.18035 14.4138 6.16638 14.3586 6.15578 14.3027H9.05382C9.04328 14.3582 9.0294 14.4132 9.01223 14.4673C8.9504 14.6621 8.84725 14.8412 8.70984 14.9924C8.57243 15.1436 8.40399 15.2634 8.21603 15.3435C8.02808 15.4237 7.82503 15.4623 7.62078 15.4568Z" stroke="#000048"/>
<path id="Path 39735" d="M8.59364 2.82905L8.59362 2.82914L8.60277 2.83111C9.36268 2.99475 10.1489 3.41528 10.7496 4.22436C11.3515 5.03514 11.7959 6.2755 11.7959 8.12564C11.7959 10.0656 12.1483 11.2279 12.6391 12.0282C12.8825 12.4251 13.1491 12.715 13.3892 12.9523C13.4706 13.0327 13.5434 13.1024 13.6099 13.1659C13.7495 13.2994 13.8609 13.4058 13.963 13.5281C13.9976 13.5756 14.0185 13.6319 14.0231 13.6906C14.0279 13.7519 14.0148 13.8132 13.9855 13.8672C13.9562 13.9212 13.9119 13.9656 13.8579 13.995C13.8039 14.0243 13.7426 14.0374 13.6813 14.0327L13.6621 14.0312H13.6428H1.02278H1.00107L0.97945 14.0331C0.917742 14.0385 0.855806 14.0257 0.801203 13.9965C0.746596 13.9673 0.701688 13.9227 0.671958 13.8684C0.642228 13.8141 0.628962 13.7522 0.633779 13.6905C0.638426 13.6309 0.659705 13.5739 0.69513 13.5259C0.798005 13.402 0.910577 13.2941 1.05202 13.1586C1.11761 13.0958 1.18942 13.027 1.26934 12.9479C1.50922 12.7105 1.77582 12.4208 2.01921 12.0241C2.51002 11.2242 2.86244 10.0629 2.86244 8.12324C2.86244 6.27284 3.30579 5.03354 3.90705 4.2234C4.50698 3.41506 5.2932 2.99419 6.05638 2.82854L6.05639 2.82856L6.06135 2.82743C6.15185 2.80682 6.31133 2.76607 6.45099 2.66105C6.62634 2.52918 6.72946 2.3293 6.72946 2.09598V1.99792C6.74449 1.85251 6.8119 1.7173 6.91939 1.6177C7.03086 1.51441 7.17722 1.45703 7.32918 1.45703C7.48114 1.45703 7.62749 1.51441 7.73896 1.6177C7.84646 1.7173 7.91386 1.85251 7.9289 1.99792V2.09838C7.9289 2.33315 8.03221 2.53516 8.21185 2.66754C8.35145 2.77042 8.51155 2.80976 8.59364 2.82905Z" stroke="#000048"/>
</g>
</svg>
