<svg width="20" height="22" viewBox="0 0 20 22" fill="none" xmlns="http://www.w3.org/2000/svg">
<g id="bell_ringing">
<path id="Vector" d="M12.3813 17.5C11.7464 18.5 10.9527 19 10.0003 19C9.04794 19 8.25429 18.5 7.61937 17.5M14.8427 16H5.15792C4.28967 16 3.58581 15.261 3.58581 14.3493C3.58581 14.0501 3.66325 13.7565 3.80985 13.5C4.74463 11.8641 5.23842 9.99226 5.23842 8.08452V7C5.23842 4.79086 6.944 3 9.04794 3H10.9527C13.0566 3 14.7622 4.79086 14.7622 7V8.08452C14.7622 9.99226 15.256 11.8641 16.1908 13.5C16.6375 14.2817 16.3961 15.2957 15.6516 15.7648C15.4072 15.9187 15.1277 16 14.8427 16V16ZM16.667 5C16.4126 4.06621 16.0951 3.39955 15.7146 3C15.3341 2.60045 14.6992 2.26712 13.8098 2L16.667 5ZM3.41786 5C3.61613 4.06621 3.90552 3.39955 4.28604 3C4.66656 2.60045 5.32955 2.26712 6.27501 2L3.41786 5Z" stroke="#53565A" stroke-linecap="round" stroke-linejoin="round"/>
</g>
</svg>
