<svg width="16" height="18" viewBox="0 0 16 18" fill="none" xmlns="http://www.w3.org/2000/svg">
<path id="Icon awesome-book" d="M4.03322 6.9621L4.03322 6.95905C4.03411 6.77026 4.11009 6.59021 4.24344 6.45786L4.59567 6.81272L4.24344 6.45785C4.37666 6.32562 4.55633 6.25161 4.74315 6.25074L4.74545 6.25073L12.2539 6.25074H12.2562C12.443 6.25161 12.6227 6.32562 12.7559 6.45786C12.8892 6.59021 12.9652 6.77027 12.9661 6.95905L12.9661 6.96139L12.9661 7.66422V7.66655C12.9652 7.85476 12.8897 8.03432 12.7571 8.1666M4.03322 6.9621L12.7571 8.1666M4.03322 6.9621L4.03421 7.66493L4.03422 7.66656C4.0351 7.85535 4.11108 8.0354 4.24443 8.16776C4.37766 8.3 4.55732 8.37401 4.74414 8.37488H4.74645H12.2549V8.3749L12.2595 8.37486C12.4457 8.37314 12.6246 8.29875 12.7571 8.1666M4.03322 6.9621L12.7571 8.1666M15.3678 12.6559L15.3678 12.6569C15.3679 12.7069 15.3566 12.7564 15.3347 12.8018C15.3129 12.8473 15.2808 12.8876 15.2407 12.9196L15.0917 13.0384L15.0596 13.2262C14.9012 14.1512 14.9012 15.0961 15.0596 16.0211L15.0914 16.2069L15.2378 16.3254C15.2787 16.3585 15.3114 16.4 15.3337 16.4466C15.356 16.4931 15.3676 16.5437 15.3678 16.5949C15.3678 16.595 15.3678 16.5951 15.3678 16.5953L15.3678 17.1564L15.3678 17.1576C15.3679 17.2021 15.3591 17.2462 15.3419 17.2875C15.3248 17.3288 15.2994 17.3666 15.2672 17.3986L15.6194 17.7535L15.2672 17.3986C15.2349 17.4306 15.1965 17.4562 15.1538 17.4736C15.1112 17.4911 15.0654 17.5001 15.019 17.5H15.0178H3.40066C2.63016 17.5 1.89196 17.1962 1.34826 16.6565C0.804691 16.117 0.5 15.386 0.5 14.6246V3.37537C0.5 2.61399 0.804691 1.88302 1.34826 1.3435C1.89196 0.803842 2.63016 0.500002 3.40066 0.500002L15.0178 0.500004L15.019 0.500001C15.0654 0.499893 15.1112 0.508879 15.1538 0.526352C15.1965 0.543821 15.2349 0.569379 15.2672 0.601376L15.6194 0.246507L15.2672 0.601379C15.2994 0.633368 15.3248 0.671158 15.3419 0.712481C15.3591 0.753795 15.3679 0.797942 15.3678 0.84242V0.843598L15.3678 12.6559ZM4.03323 4.70881H4.03322V4.71115L4.03322 5.41398L4.03323 5.41632C4.03412 5.60569 4.11056 5.78624 4.24462 5.91868L4.59602 5.56299L4.24462 5.91869C4.37856 6.051 4.55906 6.12463 4.74645 6.12463L12.2539 6.12464L12.2562 6.12463C12.443 6.12377 12.6227 6.04975 12.7559 5.91752C12.8892 5.78516 12.9652 5.6051 12.9661 5.41632V5.41398L12.9661 4.71115L12.9661 4.7088C12.9652 4.52002 12.8892 4.33997 12.7559 4.20761C12.6227 4.07537 12.443 4.00136 12.2562 4.00049H12.2539L4.74545 4.00049L4.74315 4.0005C4.55633 4.00136 4.37667 4.07537 4.24344 4.20761L4.59567 4.56248L4.24344 4.20761C4.11009 4.33997 4.03411 4.52002 4.03323 4.70881ZM13.5084 16.2498H14.0554L14.0064 15.705C13.9418 14.9862 13.9418 14.2631 14.0064 13.5443L14.0554 12.9995H13.5084H3.40066C2.96861 12.9995 2.55352 13.1698 2.24689 13.4742C1.94013 13.7787 1.76711 14.1924 1.76711 14.6246C1.76711 15.0568 1.94013 15.4706 2.24689 15.7751C2.55352 16.0794 2.96861 16.2498 3.40066 16.2498H13.5084Z" stroke="#000048"/>
</svg>
