<svg width="32" height="33" viewBox="0 0 32 33" fill="none" xmlns="http://www.w3.org/2000/svg">
<g id="calendar-midnight-blue 1" clip-path="url(#clip0_2414_43735)">
<path id="Vector" d="M10.6675 2.40756V6.85256" stroke="white" stroke-linecap="round" stroke-linejoin="round"/>
<path id="Vector_2" d="M21.3325 2.40756V6.85256" stroke="white" stroke-linecap="round" stroke-linejoin="round"/>
<path id="Vector_3" d="M0.592529 9.51755H31.4075" stroke="white" stroke-linecap="round" stroke-linejoin="round"/>
<path id="Vector_4" d="M6.75 11.9351V26.9351" stroke="white" stroke-linecap="round" stroke-linejoin="round"/>
<path id="Vector_5" d="M16 11.9351V26.9351" stroke="white" stroke-linecap="round" stroke-linejoin="round"/>
<path id="Vector_6" d="M25.5 12.1851V26.9351" stroke="white" stroke-linecap="round" stroke-linejoin="round"/>
<path id="Vector_7" d="M3.75 16.4351H28.5" stroke="white" stroke-linecap="round" stroke-linejoin="round"/>
<path id="Vector_8" d="M3.75 21.6851H28.5" stroke="white" stroke-linecap="round" stroke-linejoin="round"/>
<path id="Vector_9" d="M29 4.68506H3C1.61929 4.68506 0.5 5.80435 0.5 7.18506V27.4351C0.5 28.8158 1.61929 29.9351 3 29.9351H29C30.3807 29.9351 31.5 28.8158 31.5 27.4351V7.18506C31.5 5.80435 30.3807 4.68506 29 4.68506Z" stroke="white" stroke-linecap="round" stroke-linejoin="round"/>
</g>
<defs>
<clipPath id="clip0_2414_43735">
<rect width="32" height="32" fill="white" transform="translate(0 0.185059)"/>
</clipPath>
</defs>
</svg>
