<svg width="21" height="22" viewBox="0 0 21 22" fill="none" xmlns="http://www.w3.org/2000/svg">
<g id="calendar_month">
<g id="Group">
<path id="Vector" fill-rule="evenodd" clip-rule="evenodd" d="M4.5 3.34375H16.5C17.6046 3.34375 18.5 4.23918 18.5 5.34375V17.3438C18.5 18.4483 17.6046 19.3438 16.5 19.3438H4.5C3.39543 19.3438 2.5 18.4483 2.5 17.3438V5.34375C2.5 4.23918 3.39543 3.34375 4.5 3.34375Z" stroke="#000048" stroke-linecap="round" stroke-linejoin="round"/>
<path id="Vector_2" d="M2.5 7.34375H18.5" stroke="#000048" stroke-linecap="round" stroke-linejoin="round"/>
<g id="Group_2">
<path id="Vector_3" d="M10.5 12.3438C11.0523 12.3438 11.5 11.896 11.5 11.3438C11.5 10.7915 11.0523 10.3438 10.5 10.3438C9.94772 10.3438 9.5 10.7915 9.5 11.3438C9.5 11.896 9.94772 12.3438 10.5 12.3438Z" fill="#000048"/>
<path id="Vector_4" d="M6.5 12.3438C7.05228 12.3438 7.5 11.896 7.5 11.3438C7.5 10.7915 7.05228 10.3438 6.5 10.3438C5.94772 10.3438 5.5 10.7915 5.5 11.3438C5.5 11.896 5.94772 12.3438 6.5 12.3438Z" fill="#000048"/>
<path id="Vector_5" d="M14.5 12.3438C15.0523 12.3438 15.5 11.896 15.5 11.3438C15.5 10.7915 15.0523 10.3438 14.5 10.3438C13.9477 10.3438 13.5 10.7915 13.5 11.3438C13.5 11.896 13.9477 12.3438 14.5 12.3438Z" fill="#000048"/>
<path id="Vector_6" d="M10.5 16.3438C11.0523 16.3438 11.5 15.896 11.5 15.3438C11.5 14.7915 11.0523 14.3438 10.5 14.3438C9.94772 14.3438 9.5 14.7915 9.5 15.3438C9.5 15.896 9.94772 16.3438 10.5 16.3438Z" fill="#000048"/>
<path id="Vector_7" d="M6.5 16.3438C7.05228 16.3438 7.5 15.896 7.5 15.3438C7.5 14.7915 7.05228 14.3438 6.5 14.3438C5.94772 14.3438 5.5 14.7915 5.5 15.3438C5.5 15.896 5.94772 16.3438 6.5 16.3438Z" fill="#000048"/>
<path id="Vector_8" d="M14.5 16.3438C15.0523 16.3438 15.5 15.896 15.5 15.3438C15.5 14.7915 15.0523 14.3438 14.5 14.3438C13.9477 14.3438 13.5 14.7915 13.5 15.3438C13.5 15.896 13.9477 16.3438 14.5 16.3438Z" fill="#000048"/>
</g>
</g>
</g>
</svg>
