<svg width="32" height="32" viewBox="0 0 32 32" fill="none" xmlns="http://www.w3.org/2000/svg">
<g id="card_timeline">
<path id="Vector" d="M6.85719 6.10139H5.33338C4.4918 6.10139 3.80957 7.02671 3.80957 8.16816V24.7024C3.80957 25.8438 4.4918 26.7692 5.33338 26.7692H6.85719C7.69877 26.7692 8.381 25.8438 8.381 24.7024V8.16816C8.381 7.02671 7.69877 6.10139 6.85719 6.10139ZM26.6667 6.10139H25.1429C24.3013 6.10139 23.6191 7.02671 23.6191 8.16816V24.7024C23.6191 25.8438 24.3013 26.7692 25.1429 26.7692H26.6667C27.5083 26.7692 28.1905 25.8438 28.1905 24.7024V8.16816C28.1905 7.02671 27.5083 6.10139 26.6667 6.10139ZM19.0477 4.03461H12.9524C12.1109 4.03461 11.4286 4.95993 11.4286 6.10139V26.7692C11.4286 27.9106 12.1109 28.8359 12.9524 28.8359H19.0477C19.8892 28.8359 20.5715 27.9106 20.5715 26.7692V6.10139C20.5715 4.95993 19.8892 4.03461 19.0477 4.03461Z" stroke="white" stroke-linecap="round" stroke-linejoin="round"/>
</g>
</svg>
