<svg width="120" height="22" viewBox="0 0 120 22" fill="none" xmlns="http://www.w3.org/2000/svg">
<g id="cog_prim_lg_hrz_rgb_pos_2022 1" clip-path="url(#clip0_3672_8100)">
<g id="Clip path group">
<mask id="mask0_3672_8100" style="mask-type:luminance" maskUnits="userSpaceOnUse" x="-11" y="-10" width="142" height="43">
<g id="clip-path">
<path id="Vector" d="M130.117 -9.59766H-10.2441V32.068H130.117V-9.59766Z" fill="white"/>
</g>
</mask>
<g mask="url(#mask0_3672_8100)">
<g id="Group">
<path id="Vector_2" d="M77.2378 5.84107H79.0191V16.4032H77.2378V5.84107ZM70.7079 5.607C69.5679 5.60515 68.4633 5.99727 67.5857 6.71528V5.84107H65.7996V16.4032H67.5857V10.4462C67.5692 10.0317 67.6376 9.6181 67.787 9.23032C67.9363 8.84253 68.1634 8.4885 68.4547 8.18944C68.7461 7.89039 69.0956 7.65247 69.4823 7.48995C69.8691 7.32744 70.2851 7.24367 70.7055 7.24367C71.1258 7.24367 71.5419 7.32744 71.9286 7.48995C72.3154 7.65247 72.6649 7.89039 72.9562 8.18944C73.2475 8.4885 73.4747 8.84253 73.624 9.23032C73.7733 9.6181 73.8418 10.0317 73.8252 10.4462V16.4032H75.6114V10.4462C75.6101 9.16313 75.0931 7.93301 74.1738 7.02576C73.2545 6.11851 72.008 5.60826 70.7079 5.607ZM62.2369 5.84107H64.0183V15.9828C63.991 17.4399 63.393 18.8299 62.3498 19.8613C61.3065 20.8927 59.899 21.4852 58.4226 21.5146C57.2326 21.5449 56.0657 21.1868 55.1029 20.4958C54.1402 19.8048 53.4354 18.8196 53.098 17.693H55.0342C55.33 18.3279 55.8096 18.8623 56.4126 19.2287C57.0155 19.5951 57.7149 19.7771 58.4226 19.7519C59.42 19.7197 60.3676 19.3143 61.0733 18.6179C61.7789 17.9215 62.1898 16.9862 62.2224 16.0019V15.1516C61.4264 15.8809 60.432 16.3651 59.3612 16.5449C58.2903 16.7247 57.1896 16.5922 56.194 16.1636C55.1984 15.7351 54.3511 15.0292 53.756 14.1324C53.161 13.2356 52.844 12.1869 52.844 11.115C52.844 10.043 53.161 8.99435 53.756 8.09756C54.3511 7.20076 55.1984 6.49482 56.194 6.06628C57.1896 5.63774 58.2903 5.50524 59.3612 5.68501C60.432 5.86478 61.4264 6.34901 62.2224 7.07833L62.2369 5.84107ZM62.2369 11.1197C62.2369 10.3781 62.0141 9.65303 61.5965 9.03635C61.179 8.41967 60.5856 7.93901 59.8912 7.65519C59.1969 7.37136 58.4329 7.29711 57.6958 7.4418C56.9587 7.5865 56.2816 7.94365 55.7502 8.4681C55.2188 8.99254 54.8569 9.66072 54.7103 10.3882C54.5637 11.1156 54.6389 11.8696 54.9265 12.5548C55.2141 13.24 55.7012 13.8257 56.326 14.2378C56.9509 14.6498 57.6856 14.8697 58.4371 14.8697C59.4445 14.8685 60.4103 14.473 61.1226 13.77C61.8349 13.067 62.2357 12.1139 62.2369 11.1197ZM34.6458 7.36496C35.3685 7.36584 36.076 7.56985 36.6855 7.95308C37.295 8.33632 37.7813 8.88293 38.0874 9.52897H39.9898C39.6035 8.2621 38.7685 7.17456 37.6371 6.46488C36.5058 5.75521 35.1535 5.47073 33.8273 5.66337C32.501 5.85602 31.2892 6.51294 30.413 7.51423C29.5368 8.51551 29.0547 9.79437 29.0547 11.1174C29.0547 12.4403 29.5368 13.7192 30.413 14.7205C31.2892 15.7218 32.501 16.3787 33.8273 16.5713C35.1535 16.764 36.5058 16.4795 37.6371 15.7698C38.7685 15.0601 39.6035 13.9726 39.9898 12.7057H38.0923C37.8067 13.3163 37.36 13.8399 36.7989 14.2216C36.2379 14.6032 35.5832 14.829 34.9033 14.8752C34.2235 14.9214 33.5436 14.7863 32.9349 14.4842C32.3261 14.182 31.8109 13.7238 31.4432 13.1576C31.0754 12.5914 30.8688 11.9381 30.8448 11.266C30.8208 10.5939 30.9804 9.92783 31.3069 9.33753C31.6334 8.74723 32.1147 8.25443 32.7004 7.91075C33.2861 7.56707 33.9547 7.38516 34.6361 7.38407L34.6458 7.36496ZM52.004 11.1197C52.004 12.2101 51.6764 13.2759 51.0626 14.1825C50.4488 15.089 49.5764 15.7956 48.5557 16.2128C47.535 16.6301 46.4118 16.7393 45.3283 16.5266C44.2447 16.3138 43.2493 15.7888 42.4681 15.0178C41.6869 14.2469 41.1549 13.2646 40.9394 12.1952C40.7238 11.1259 40.8345 10.0174 41.2572 9.01011C41.68 8.00279 42.396 7.14182 43.3146 6.53607C44.2332 5.93032 45.3132 5.607 46.418 5.607C47.8979 5.60953 49.3162 6.19145 50.3617 7.22502C51.4071 8.25858 51.9943 9.65933 51.9943 11.1197H52.004ZM50.2179 11.1197C50.2179 10.3781 49.995 9.65303 49.5775 9.03635C49.16 8.41967 48.5665 7.93901 47.8722 7.65519C47.1778 7.37136 46.4138 7.29711 45.6767 7.4418C44.9396 7.5865 44.2626 7.94365 43.7311 8.4681C43.1997 8.99254 42.8378 9.66072 42.6912 10.3882C42.5446 11.1156 42.6198 11.8696 42.9074 12.5548C43.195 13.24 43.6821 13.8257 44.307 14.2378C44.9318 14.6498 45.6665 14.8697 46.418 14.8697C47.4216 14.8634 48.3819 14.4656 49.0893 13.763C49.7967 13.0604 50.1937 12.1102 50.1937 11.1197H50.2179ZM108.556 5.607C107.418 5.60506 106.315 5.99725 105.439 6.71528V5.84585H103.653V16.4032H105.439V10.4462C105.422 10.0317 105.491 9.6181 105.64 9.23032C105.789 8.84253 106.016 8.4885 106.308 8.18944C106.599 7.89039 106.949 7.65247 107.335 7.48995C107.722 7.32744 108.138 7.24367 108.559 7.24367C108.979 7.24367 109.395 7.32744 109.782 7.48995C110.168 7.65247 110.518 7.89039 110.809 8.18944C111.101 8.4885 111.328 8.84253 111.477 9.23032C111.626 9.6181 111.695 10.0317 111.678 10.4462V16.4032H113.464V10.4462C113.464 9.80966 113.336 9.1795 113.089 8.59174C112.841 8.00397 112.478 7.47011 112.022 7.02069C111.565 6.57127 111.023 6.2151 110.427 5.97253C109.83 5.72996 109.191 5.60574 108.546 5.607H108.556ZM100.085 5.84585H101.871V16.4032H100.085V15.1564C99.4182 15.7643 98.6111 16.2025 97.7337 16.4329C96.8563 16.6633 95.9352 16.679 95.0503 16.4786C94.1654 16.2783 93.3434 15.8679 92.6556 15.2831C91.9677 14.6982 91.4348 13.9566 91.1031 13.1226C90.7714 12.2885 90.6509 11.3872 90.752 10.4968C90.8531 9.60635 91.1728 8.75372 91.6833 8.01281C92.1939 7.27191 92.8799 6.66511 93.6818 6.24504C94.4838 5.82497 95.3774 5.60432 96.2853 5.60222C97.6963 5.59856 99.0554 6.12653 100.085 7.07833V5.84585ZM100.085 11.1006C100.085 10.359 99.8623 9.63392 99.4448 9.01724C99.0273 8.40055 98.4338 7.91992 97.7395 7.63609C97.0451 7.35226 96.2811 7.27799 95.544 7.42269C94.8069 7.56738 94.1299 7.92454 93.5985 8.44898C93.067 8.97343 92.7052 9.64161 92.5585 10.369C92.4119 11.0965 92.4872 11.8505 92.7748 12.5357C93.0624 13.2209 93.5494 13.8066 94.1743 14.2186C94.7991 14.6307 95.5338 14.8506 96.2853 14.8506C97.2885 14.8494 98.2503 14.4562 98.9606 13.7571C99.6708 13.0579 100.072 12.1097 100.075 11.1197L100.085 11.1006ZM119.447 7.58471V5.82197H116.771V2.95573H114.96V12.8777C114.96 13.3398 115.051 13.7975 115.23 14.2246C115.409 14.6518 115.671 15.0399 116.002 15.3669C116.333 15.6939 116.726 15.9533 117.158 16.1303C117.591 16.3073 118.055 16.3984 118.523 16.3984H119.413V14.6357H118.523C118.05 14.6357 117.596 14.4506 117.262 14.1211C116.927 13.7915 116.738 13.3444 116.737 12.8777V7.60381L119.447 7.58471ZM78.1575 2.01465C77.9229 2.01465 77.6936 2.08329 77.4986 2.2119C77.3036 2.3405 77.1516 2.52328 77.0618 2.73714C76.9721 2.951 76.9486 3.18632 76.9943 3.41335C77.0401 3.64038 77.1531 3.84893 77.3189 4.01261C77.4848 4.17629 77.6961 4.28776 77.9261 4.33292C78.1562 4.37807 78.3946 4.3549 78.6113 4.26632C78.828 4.17774 79.0133 4.02772 79.1436 3.83525C79.2739 3.64278 79.3434 3.4165 79.3434 3.18502C79.3416 3.03031 79.3085 2.87751 79.2462 2.73554C79.1839 2.59356 79.0935 2.46525 78.9804 2.35809C78.8673 2.25093 78.7338 2.16706 78.5875 2.11138C78.4412 2.05569 78.2852 2.0293 78.1284 2.03375L78.1575 2.01465ZM89.7748 5.8363H80.8198V7.59426H87.4272L80.8198 14.6309V16.3936H89.7361V14.6309H83.1094L89.7119 7.59426L89.7748 5.8363Z" fill="#000048"/>
<path id="Vector_3" fill-rule="evenodd" clip-rule="evenodd" d="M11.1746 11.2539H0.414062L7.80558 21.7539L15.473 17.2348L11.1746 11.2539Z" fill="url(#paint0_linear_3672_8100)"/>
<path id="Vector_4" fill-rule="evenodd" clip-rule="evenodd" d="M25.6421 11.2539L7.80469 21.7539H18.391L25.6421 11.2539Z" fill="url(#paint1_linear_3672_8100)"/>
<path id="Vector_5" fill-rule="evenodd" clip-rule="evenodd" d="M0.414062 11.2539H11.1746L15.4827 5.27301L7.80558 0.753906L0.414062 11.2539Z" fill="url(#paint2_linear_3672_8100)"/>
<path id="Vector_6" fill-rule="evenodd" clip-rule="evenodd" d="M25.6421 11.2539L7.80469 0.753906H18.391L25.6421 11.2539Z" fill="url(#paint3_linear_3672_8100)"/>
</g>
</g>
</g>
</g>
<defs>
<linearGradient id="paint0_linear_3672_8100" x1="0.17097" y1="15.8146" x2="15.1856" y2="15.8146" gradientUnits="userSpaceOnUse">
<stop stop-color="#3D54CE"/>
<stop offset="1" stop-color="#35CACF"/>
</linearGradient>
<linearGradient id="paint1_linear_3672_8100" x1="6.87492" y1="15.8146" x2="24.6633" y2="15.8146" gradientUnits="userSpaceOnUse">
<stop stop-color="#13457D"/>
<stop offset="1" stop-color="#279698"/>
</linearGradient>
<linearGradient id="paint2_linear_3672_8100" x1="0.372143" y1="5.30096" x2="15.398" y2="5.30096" gradientUnits="userSpaceOnUse">
<stop stop-color="#090086"/>
<stop offset="1" stop-color="#2F96A9"/>
</linearGradient>
<linearGradient id="paint3_linear_3672_8100" x1="6.87492" y1="5.30096" x2="24.6633" y2="5.30096" gradientUnits="userSpaceOnUse">
<stop stop-color="#3B62CA"/>
<stop offset="1" stop-color="#93DFE3"/>
</linearGradient>
<clipPath id="clip0_3672_8100">
<rect width="119" height="21" fill="white" transform="translate(0.414062 0.753906)"/>
</clipPath>
</defs>
</svg>
