<svg width="14" height="15" viewBox="0 0 14 15" fill="none" xmlns="http://www.w3.org/2000/svg">
<g id="Group 54987">
<path id="Vector" d="M7.00049 10.8301L7.00049 7.58008" stroke="#B81F2D" stroke-linecap="round" stroke-linejoin="round"/>
<path id="Vector_2" d="M6.36783 14.048C6.35128 14.0463 6.33465 14.0455 6.31802 14.0455C5.41378 14.0455 4.59382 13.7465 3.73505 13.2091C3.72947 13.2056 3.72382 13.2022 3.71811 13.199C1.49414 11.9266 0.232254 9.49496 0.548121 6.96494C0.550686 6.9444 0.551973 6.92371 0.551973 6.903C0.551973 5.9824 0.860151 5.05697 1.37043 4.3417C1.38138 4.32636 1.39145 4.3104 1.4006 4.29391C2.45581 2.39222 4.35039 1.23413 6.45695 1.12868C6.46935 1.12806 6.48172 1.12697 6.49404 1.12543C8.16874 0.915838 9.85379 1.43716 11.2355 2.60774L11.2355 2.60775L11.2384 2.61016C12.4968 3.66015 13.3465 5.35611 13.4522 7.04822C13.4528 7.05851 13.4538 7.06878 13.4551 7.07901C13.6644 8.75545 13.1441 10.442 11.9762 11.8251C10.6016 13.4116 8.48373 14.2598 6.36783 14.048Z" stroke="#B81F2D" stroke-linecap="round" stroke-linejoin="round"/>
<path id="Vector_3" d="M7.56131 5.1572C7.56131 5.46788 7.30993 5.71869 7.00112 5.71869C6.6923 5.71869 6.44092 5.46788 6.44092 5.1572C6.44092 4.84652 6.6923 4.5957 7.00112 4.5957C7.30993 4.5957 7.56131 4.84652 7.56131 5.1572Z" stroke="#B81F2D" stroke-miterlimit="10"/>
</g>
</svg>
