<svg width="16" height="16" viewBox="0 0 16 16" fill="none" xmlns="http://www.w3.org/2000/svg">
<g id="Group 55248">
<g id="Group">
<path id="Vector" fill-rule="evenodd" clip-rule="evenodd" d="M12 9.75879V2.75879C12 1.65422 11.1046 0.758789 10 0.758789H3C1.89543 0.758789 1 1.65422 1 2.75879V9.75879C1 10.8634 1.89543 11.7588 3 11.7588H10C11.1046 11.7588 12 10.8634 12 9.75879Z" stroke="white" stroke-linecap="round" stroke-linejoin="round"/>
<path id="Vector_2" d="M4 11.7588V12.7588C4 13.8634 4.89543 14.7588 6 14.7588H13C14.1046 14.7588 15 13.8634 15 12.7588V5.75879C15 4.65422 14.1046 3.75879 13 3.75879H12" stroke="white" stroke-linecap="round" stroke-linejoin="round"/>
</g>
<g id="Group_2">
<path id="Vector_3" fill-rule="evenodd" clip-rule="evenodd" d="M10.1489 2.60992C10.6182 3.07929 10.6182 3.8403 10.1489 4.30967L4.76633 9.69221L2.5 10.2588L3.06658 8.02438L8.45129 2.61209C8.89492 2.16619 9.60215 2.14214 10.0742 2.54123L10.1489 2.60992Z" stroke="white" stroke-linecap="round" stroke-linejoin="round"/>
<path id="Vector_4" d="M9.29895 4.02637L9.86553 4.59295" stroke="white" stroke-linecap="round" stroke-linejoin="round"/>
</g>
</g>
</svg>
