<svg width="49" height="49" viewBox="0 0 49 49" fill="none" xmlns="http://www.w3.org/2000/svg">
<g id="Group 55064">
<g id="Group 55030">
<path id="Vector" d="M41.6778 11.8781V45.6225C41.6778 46.7473 40.928 47.4972 40.1783 47.4972H9.4401C8.69039 47.4972 7.94067 46.7473 7.94067 45.6225V2.87957C7.94067 1.75476 8.69039 1.00488 9.4401 1.00488H31.1818" stroke="white" stroke-linecap="round" stroke-linejoin="round"/>
<path id="Vector_2" d="M41.6779 11.8788H32.6813C31.9316 11.8788 31.1819 11.1289 31.1819 10.379V1.00488L41.6779 11.8788Z" stroke="white" stroke-linecap="round" stroke-linejoin="round"/>
</g>
<g id="Group 55033">
<path id="Vector_3" d="M34.1358 16.5088H19.731C19.2232 16.5088 18.8115 16.739 18.8115 17.0231V18.9945C18.8115 19.2785 19.2232 19.5088 19.731 19.5088H34.1358C34.6437 19.5088 35.0553 19.2785 35.0553 18.9945V17.0231C35.0553 16.739 34.6437 16.5088 34.1358 16.5088Z" stroke="white" stroke-linecap="round" stroke-linejoin="round"/>
<path id="Vector_4" d="M14.6413 19.2773C15.4263 19.2773 16.0626 18.6407 16.0626 17.8555C16.0626 17.0702 15.4263 16.4336 14.6413 16.4336C13.8563 16.4336 13.22 17.0702 13.22 17.8555C13.22 18.6407 13.8563 19.2773 14.6413 19.2773Z" stroke="white" stroke-linecap="round" stroke-linejoin="round"/>
<path id="Vector_5" d="M34.1358 26.3086H19.731C19.2232 26.3086 18.8115 26.5388 18.8115 26.8229V28.7943C18.8115 29.0783 19.2232 29.3086 19.731 29.3086H34.1358C34.6437 29.3086 35.0553 29.0783 35.0553 28.7943V26.8229C35.0553 26.5388 34.6437 26.3086 34.1358 26.3086Z" stroke="white" stroke-linecap="round" stroke-linejoin="round"/>
<path id="Vector_6" d="M14.6413 29.0771C15.4263 29.0771 16.0626 28.4406 16.0626 27.6553C16.0626 26.87 15.4263 26.2334 14.6413 26.2334C13.8563 26.2334 13.22 26.87 13.22 27.6553C13.22 28.4406 13.8563 29.0771 14.6413 29.0771Z" stroke="white" stroke-linecap="round" stroke-linejoin="round"/>
<path id="Vector_7" d="M34.1358 36.1094H19.731C19.2232 36.1094 18.8115 36.3396 18.8115 36.6237V38.5951C18.8115 38.8791 19.2232 39.1094 19.731 39.1094H34.1358C34.6437 39.1094 35.0553 38.8791 35.0553 38.5951V36.6237C35.0553 36.3396 34.6437 36.1094 34.1358 36.1094Z" stroke="white" stroke-linecap="round" stroke-linejoin="round"/>
<path id="Vector_8" d="M14.6413 38.877C15.4263 38.877 16.0626 38.2404 16.0626 37.4551C16.0626 36.6698 15.4263 36.0332 14.6413 36.0332C13.8563 36.0332 13.22 36.6698 13.22 37.4551C13.22 38.2404 13.8563 38.877 14.6413 38.877Z" stroke="white" stroke-linecap="round" stroke-linejoin="round"/>
</g>
</g>
</svg>
