<svg width="49" height="49" viewBox="0 0 49 49" fill="none" xmlns="http://www.w3.org/2000/svg">
<g id="Group 55067">
<g id="Group 55030">
<path id="Vector" d="M41.2383 12.3955V46.1455C41.2383 47.2705 40.4883 48.0205 39.7383 48.0205H8.98828C8.23828 48.0205 7.48828 47.2705 7.48828 46.1455V3.39551C7.48828 2.27051 8.23828 1.52051 8.98828 1.52051H30.7383" stroke="#2F78C4" stroke-linecap="round" stroke-linejoin="round"/>
<path id="Vector_2" d="M41.2383 12.3955H32.2383C31.4883 12.3955 30.7383 11.6455 30.7383 10.8955V1.52051L41.2383 12.3955Z" stroke="#2F78C4" stroke-linecap="round" stroke-linejoin="round"/>
</g>
<g id="Group 55033">
<path id="Vector_3" d="M33.6935 17.0273H19.2831C18.7751 17.0273 18.3633 17.2576 18.3633 17.5416V19.5131C18.3633 19.7971 18.7751 20.0273 19.2831 20.0273H33.6935C34.2015 20.0273 34.6133 19.7971 34.6133 19.5131V17.5416C34.6133 17.2576 34.2015 17.0273 33.6935 17.0273Z" stroke="#2F78C4" stroke-linecap="round" stroke-linejoin="round"/>
<path id="Vector_4" d="M14.1914 19.7949C14.9767 19.7949 15.6133 19.1583 15.6133 18.373C15.6133 17.5878 14.9767 16.9512 14.1914 16.9512C13.4061 16.9512 12.7695 17.5878 12.7695 18.373C12.7695 19.1583 13.4061 19.7949 14.1914 19.7949Z" stroke="#2F78C4" stroke-linecap="round" stroke-linejoin="round"/>
<path id="Vector_5" d="M33.6935 26.8281H19.2831C18.7751 26.8281 18.3633 27.0584 18.3633 27.3424V29.3138C18.3633 29.5979 18.7751 29.8281 19.2831 29.8281H33.6935C34.2015 29.8281 34.6133 29.5979 34.6133 29.3138V27.3424C34.6133 27.0584 34.2015 26.8281 33.6935 26.8281Z" stroke="#2F78C4" stroke-linecap="round" stroke-linejoin="round"/>
<path id="Vector_6" d="M14.1914 29.5957C14.9767 29.5957 15.6133 28.9591 15.6133 28.1738C15.6133 27.3885 14.9767 26.752 14.1914 26.752C13.4061 26.752 12.7695 27.3885 12.7695 28.1738C12.7695 28.9591 13.4061 29.5957 14.1914 29.5957Z" stroke="#2F78C4" stroke-linecap="round" stroke-linejoin="round"/>
<path id="Vector_7" d="M33.6935 36.6289H19.2831C18.7751 36.6289 18.3633 36.8592 18.3633 37.1432V39.1146C18.3633 39.3987 18.7751 39.6289 19.2831 39.6289H33.6935C34.2015 39.6289 34.6133 39.3987 34.6133 39.1146V37.1432C34.6133 36.8592 34.2015 36.6289 33.6935 36.6289Z" stroke="#2F78C4" stroke-linecap="round" stroke-linejoin="round"/>
<path id="Vector_8" d="M14.1914 39.3975C14.9767 39.3975 15.6133 38.7609 15.6133 37.9756C15.6133 37.1903 14.9767 36.5537 14.1914 36.5537C13.4061 36.5537 12.7695 37.1903 12.7695 37.9756C12.7695 38.7609 13.4061 39.3975 14.1914 39.3975Z" stroke="#2F78C4" stroke-linecap="round" stroke-linejoin="round"/>
</g>
</g>
</svg>
