<svg width="17" height="19" viewBox="0 0 17 19" fill="none" xmlns="http://www.w3.org/2000/svg">
<path id="Vector" d="M3.18085 18.7749C2.72542 18.7749 2.33318 18.6104 2.00411 18.2814C1.67506 17.9523 1.51054 17.56 1.51054 17.1046V2.51119H0.363281V1.54416H4.82334V0.75293H11.9032V1.54416H16.3633V2.51119H15.216V17.1046C15.216 17.5728 15.0547 17.9682 14.732 18.2909C14.4093 18.6136 14.0138 18.7749 13.5457 18.7749H3.18085ZM14.249 2.51119H2.47757V17.1046C2.47757 17.3097 2.54594 17.4782 2.68268 17.6101C2.81944 17.742 2.9855 17.8079 3.18085 17.8079H13.5457C13.7215 17.8079 13.8827 17.7346 14.0292 17.5881C14.1757 17.4416 14.249 17.2804 14.249 17.1046V2.51119ZM5.91785 15.4665H6.88488V4.83353H5.91785V15.4665ZM9.84168 15.4665H10.8087V4.83353H9.84168V15.4665Z" fill="#2F78C4"/>
</svg>
