<svg width="38" height="38" viewBox="0 0 38 38" fill="none" xmlns="http://www.w3.org/2000/svg">
<g id="Group 55003">
<circle id="Ellipse 1973" cx="19.25" cy="18.8855" r="18.5" fill="#2F78C4"/>
<g id="Icon">
<path d="M20.5894 16.4827C20.5894 16.0992 20.2896 15.7884 19.9198 15.7884H14.5623C14.1924 15.7884 13.8926 16.0992 13.8926 16.4827C13.8926 16.8661 14.1924 17.177 14.5623 17.177H19.9198C20.2896 17.177 20.5894 16.8661 20.5894 16.4827Z" fill="white"/>
<path d="M19.6965 19.2599C19.6965 18.8764 19.3967 18.5656 19.0268 18.5656H14.5623C14.1924 18.5656 13.8926 18.8764 13.8926 19.2599C13.8926 19.6433 14.1924 19.9542 14.5623 19.9542H19.0268C19.3967 19.9542 19.6965 19.6433 19.6965 19.2599Z" fill="white"/>
<path d="M19.9198 21.3427C20.2896 21.3427 20.5894 21.6536 20.5894 22.037C20.5894 22.4205 20.2896 22.7313 19.9198 22.7313H14.5623C14.1924 22.7313 13.8926 22.4205 13.8926 22.037C13.8926 21.6536 14.1924 21.3427 14.5623 21.3427H19.9198Z" fill="white"/>
<path fill-rule="evenodd" clip-rule="evenodd" d="M13.8926 27.5914H25.5004C26.8566 27.5914 27.956 26.4516 27.956 25.0456V19.9542C27.956 19.5707 27.6561 19.2599 27.2863 19.2599H24.3843V12.0329C24.3843 10.7152 22.9477 9.94877 21.9135 10.7147L21.7572 10.8304C21.0603 11.3465 20.1163 11.3448 19.4161 10.8262C18.2519 9.96409 16.6766 9.96409 15.5124 10.8262C14.8122 11.3448 13.8682 11.3465 13.1713 10.8304L13.015 10.7147C11.9808 9.94877 10.5442 10.7152 10.5442 12.0329V24.1199C10.5442 26.0372 12.0433 27.5914 13.8926 27.5914ZM16.2909 11.9562C16.9894 11.4389 17.9391 11.4389 18.6376 11.9562C19.8002 12.8171 21.3698 12.8237 22.5357 11.9603L22.692 11.8446C22.8397 11.7352 23.0449 11.8447 23.0449 12.0329V25.0456C23.0449 25.4623 23.1415 25.8556 23.3127 26.2028H13.8926C12.783 26.2028 11.8836 25.2703 11.8836 24.1199V12.0329C11.8836 11.8447 12.0888 11.7352 12.2365 11.8446L12.3928 11.9603C13.5587 12.8237 15.1283 12.8171 16.2909 11.9562ZM24.3843 25.0456V20.6485H26.6166V25.0456C26.6166 25.6847 26.1169 26.2028 25.5004 26.2028C24.884 26.2028 24.3843 25.6847 24.3843 25.0456Z" fill="white"/>
</g>
</g>
</svg>
