<svg width="17" height="17" viewBox="0 0 17 17" fill="none" xmlns="http://www.w3.org/2000/svg">
<path id="Vector" d="M11.5108 12.4L12.6308 11.28L9.67085 8.32001V4.64001H8.07085V8.96001L11.5108 12.4ZM8.87085 16.64C7.76418 16.64 6.72418 16.43 5.75085 16.01C4.77752 15.59 3.93085 15.02 3.21085 14.3C2.49085 13.58 1.92085 12.7333 1.50085 11.76C1.08085 10.7867 0.87085 9.74668 0.87085 8.64001C0.87085 7.53335 1.08085 6.49335 1.50085 5.52001C1.92085 4.54668 2.49085 3.70001 3.21085 2.98001C3.93085 2.26001 4.77752 1.69001 5.75085 1.27001C6.72418 0.850015 7.76418 0.640015 8.87085 0.640015C9.97752 0.640015 11.0175 0.850015 11.9908 1.27001C12.9642 1.69001 13.8108 2.26001 14.5308 2.98001C15.2508 3.70001 15.8208 4.54668 16.2408 5.52001C16.6608 6.49335 16.8708 7.53335 16.8708 8.64001C16.8708 9.74668 16.6608 10.7867 16.2408 11.76C15.8208 12.7333 15.2508 13.58 14.5308 14.3C13.8108 15.02 12.9642 15.59 11.9908 16.01C11.0175 16.43 9.97752 16.64 8.87085 16.64ZM8.87085 15.04C10.6442 15.04 12.1542 14.4167 13.4008 13.17C14.6475 11.9233 15.2708 10.4133 15.2708 8.64001C15.2708 6.86668 14.6475 5.35668 13.4008 4.11001C12.1542 2.86335 10.6442 2.24001 8.87085 2.24001C7.09752 2.24001 5.58752 2.86335 4.34085 4.11001C3.09418 5.35668 2.47085 6.86668 2.47085 8.64001C2.47085 10.4133 3.09418 11.9233 4.34085 13.17C5.58752 14.4167 7.09752 15.04 8.87085 15.04Z" fill="#000048"/>
</svg>
