<svg width="18" height="18" viewBox="0 0 18 18" fill="none" xmlns="http://www.w3.org/2000/svg">
<g id="Group 55113">
<circle id="Ellipse 1971" cx="9" cy="9" r="9" fill="#E9C71D"/>
<path id="Vector" d="M11.7385 13.3548C11.1236 13.3548 10.6037 13.1539 10.1789 12.7522C9.75397 12.3504 9.54152 11.8588 9.54152 11.2774C9.54152 10.696 9.75414 10.2044 10.1794 9.80259C10.6046 9.40081 11.1225 9.19993 11.733 9.19993C12.3515 9.19993 12.8732 9.40098 13.2981 9.80308C13.723 10.2052 13.9354 10.6949 13.9354 11.2722C13.9354 11.8571 13.723 12.3504 13.2981 12.7522C12.8732 13.1539 12.3533 13.3548 11.7385 13.3548ZM12.6226 12.4937L12.9319 12.2005L11.9001 11.2247V9.76267H11.4666V11.3817L12.6226 12.4937ZM4.85063 12.8179C4.63825 12.8179 4.45413 12.7442 4.29826 12.5968C4.14239 12.4494 4.06445 12.2753 4.06445 12.0745V4.97069C4.06445 4.75868 4.13943 4.58178 4.28939 4.43998C4.43934 4.29818 4.62642 4.22728 4.85063 4.22728H7.71801C7.74786 4.01733 7.84559 3.84094 8.01119 3.69811C8.1768 3.55528 8.37535 3.48386 8.60684 3.48386C8.84193 3.48386 9.04138 3.55528 9.20519 3.69811C9.369 3.84094 9.46583 4.01733 9.49568 4.22728H12.3631C12.5873 4.22728 12.7743 4.29818 12.9243 4.43998C13.0743 4.58178 13.1492 4.75868 13.1492 4.97069V8.5577C13.0655 8.53223 12.9914 8.50771 12.9268 8.48414C12.8622 8.46057 12.7908 8.43656 12.7125 8.41211V4.97069C12.7125 4.8881 12.6761 4.81238 12.6033 4.74354C12.5305 4.67471 12.4504 4.64029 12.3631 4.64029H11.1401V5.65217H6.07358V4.64029H4.85063C4.76328 4.64029 4.68321 4.67471 4.61041 4.74354C4.53761 4.81238 4.50122 4.8881 4.50122 4.97069V12.0745C4.50122 12.1709 4.53398 12.25 4.59949 12.312C4.665 12.3739 4.74872 12.4049 4.85063 12.4049H8.77062C8.79611 12.4772 8.82559 12.5455 8.85907 12.6099C8.89256 12.6742 8.93478 12.7436 8.98573 12.8179H4.85063ZM8.60684 4.7642C8.7386 4.7642 8.84797 4.72307 8.93496 4.64081C9.02196 4.55855 9.06545 4.45512 9.06545 4.33053C9.06545 4.20594 9.02196 4.10252 8.93496 4.02026C8.84797 3.938 8.7386 3.89686 8.60684 3.89686C8.47509 3.89686 8.36571 3.938 8.27873 4.02026C8.19173 4.10252 8.14823 4.20594 8.14823 4.33053C8.14823 4.45512 8.19173 4.55855 8.27873 4.64081C8.36571 4.72307 8.47509 4.7642 8.60684 4.7642Z" fill="black" stroke="black" stroke-width="0.2"/>
</g>
</svg>
