<svg width="24" height="24" viewBox="0 0 24 24" fill="none" xmlns="http://www.w3.org/2000/svg">
<g id="help_FILL0_wght200_GRAD0_opsz24 1">
<path id="Vector" d="M11.7756 17.2308C11.992 17.2308 12.1746 17.1545 12.3233 17.0018C12.4721 16.8492 12.5464 16.6623 12.5464 16.4412C12.5464 16.2202 12.4717 16.0337 12.3223 15.8817C12.1728 15.7298 11.9899 15.6538 11.7735 15.6538C11.557 15.6538 11.3744 15.7302 11.2257 15.8828C11.077 16.0355 11.0026 16.2223 11.0026 16.4434C11.0026 16.6645 11.0773 16.851 11.2268 17.0029C11.3762 17.1548 11.5592 17.2308 11.7756 17.2308ZM11.2699 13.9192H12.2151C12.2402 13.4846 12.3202 13.1314 12.4551 12.8596C12.5901 12.5878 12.8678 12.241 13.2882 11.8192C13.725 11.3731 14.0501 10.9734 14.2635 10.6202C14.4769 10.267 14.5836 9.85816 14.5836 9.39373C14.5836 8.60559 14.3125 7.97755 13.7703 7.5096C13.228 7.04165 12.5867 6.80768 11.8461 6.80768C11.1419 6.80768 10.5442 7.00319 10.0528 7.39422C9.56138 7.78526 9.20146 8.23462 8.97302 8.7423L9.87299 9.12307C10.0299 8.75897 10.2542 8.43718 10.5461 8.1577C10.8379 7.8782 11.2587 7.73845 11.8084 7.73845C12.4435 7.73845 12.9073 7.91634 13.1998 8.27213C13.4922 8.62789 13.6384 9.01923 13.6384 9.44615C13.6384 9.7923 13.5468 10.1016 13.3636 10.374C13.1803 10.6465 12.9418 10.9205 12.6481 11.1962C12.0808 11.7308 11.7093 12.184 11.5335 12.5558C11.3578 12.9276 11.2699 13.382 11.2699 13.9192ZM11.7515 21C10.533 21 9.38748 20.7638 8.31485 20.2915C7.24223 19.8192 6.30918 19.1782 5.51572 18.3685C4.72227 17.5588 4.09413 16.6066 3.63128 15.512C3.16844 14.4174 2.93701 13.2479 2.93701 12.0034C2.93701 10.7588 3.16822 9.58872 3.63062 8.4931C4.09304 7.39748 4.72061 6.44444 5.51332 5.63398C6.30603 4.82353 7.2382 4.18192 8.30981 3.70915C9.38144 3.23638 10.5265 3 11.7449 3C12.9633 3 14.1089 3.23616 15.1815 3.70847C16.2541 4.18081 17.1872 4.82182 17.9806 5.63152C18.7741 6.44122 19.4022 7.39337 19.8651 8.48795C20.3279 9.58255 20.5593 10.7521 20.5593 11.9966C20.5593 13.2412 20.3281 14.4113 19.8657 15.5069C19.4033 16.6025 18.7757 17.5556 17.983 18.366C17.1903 19.1765 16.2581 19.8181 15.1865 20.2909C14.1149 20.7636 12.9699 21 11.7515 21ZM11.7482 20C13.9346 20 15.7866 19.225 17.3041 17.675C18.8216 16.125 19.5803 14.2333 19.5803 12C19.5803 9.76667 18.8216 7.875 17.3041 6.325C15.7866 4.775 13.9346 4 11.7482 4C9.5617 4 7.70972 4.775 6.19225 6.325C4.67477 7.875 3.91603 9.76667 3.91603 12C3.91603 14.2333 4.67477 16.125 6.19225 17.675C7.70972 19.225 9.5617 20 11.7482 20Z" fill="#000048"/>
</g>
</svg>
