<svg width="14" height="14" viewBox="0 0 14 14" fill="none" xmlns="http://www.w3.org/2000/svg">
<g id="Group">
<g id="Group_2">
<path id="Vector" d="M7 12.6401C10.3137 12.6401 13 9.95385 13 6.64014C13 3.32643 10.3137 0.640137 7 0.640137C3.68629 0.640137 1 3.32643 1 6.64014C1 9.95385 3.68629 12.6401 7 12.6401Z" stroke="#000048" stroke-linecap="round" stroke-linejoin="round"/>
<path id="Vector_2" d="M6.99902 9.64001V6.64001H6.24902" stroke="#000048" stroke-linecap="round" stroke-linejoin="round"/>
<path id="Vector_3" d="M6.24902 9.64014H7.74902" stroke="#000048" stroke-linecap="round" stroke-linejoin="round"/>
<path id="Vector_4" d="M6.99902 5.13992C7.41324 5.13992 7.74902 4.80414 7.74902 4.38992C7.74902 3.97571 7.41324 3.63992 6.99902 3.63992C6.58481 3.63992 6.24902 3.97571 6.24902 4.38992C6.24902 4.80414 6.58481 5.13992 6.99902 5.13992Z" fill="#000048"/>
</g>
</g>
</svg>
