<svg width="24" height="24" viewBox="0 0 24 24" fill="none" xmlns="http://www.w3.org/2000/svg">
<g id="info_circle">
<g id="Group">
<g id="Group_2">
<path id="Vector" d="M12 21.1431C17.0495 21.1431 21.1429 17.0497 21.1429 12.0003C21.1429 6.95082 17.0495 2.85742 12 2.85742C6.95057 2.85742 2.85718 6.95082 2.85718 12.0003C2.85718 17.0497 6.95057 21.1431 12 21.1431Z" stroke="#2F78C4" stroke-linecap="round" stroke-linejoin="round"/>
<path id="Vector_2" d="M12 16.5714V12H10.8572" stroke="#2F78C4" stroke-linecap="round" stroke-linejoin="round"/>
<path id="Vector_3" d="M10.8572 16.5713H13.1429" stroke="#2F78C4" stroke-linecap="round" stroke-linejoin="round"/>
</g>
<path id="Vector_4" d="M12 9.71443C12.6312 9.71443 13.1429 9.20275 13.1429 8.57157C13.1429 7.94039 12.6312 7.42871 12 7.42871C11.3689 7.42871 10.8572 7.94039 10.8572 8.57157C10.8572 9.20275 11.3689 9.71443 12 9.71443Z" fill="#2F78C4"/>
</g>
</g>
</svg>
