<svg width="49" height="49" viewBox="0 0 49 49" fill="none" xmlns="http://www.w3.org/2000/svg">
<g id="Group 55065">
<g id="Group 55030">
<path id="Vector" d="M41.6602 10.9936V42.7476C41.6602 43.8061 40.9102 44.5117 40.1602 44.5117H9.41016C8.66016 44.5117 7.91016 43.8061 7.91016 42.7476V2.52583C7.91016 1.46736 8.66016 0.761719 9.41016 0.761719H31.1602" stroke="#2F78C4" stroke-linecap="round" stroke-linejoin="round"/>
<path id="Vector_2" d="M38.6602 45.1367V45.5278C38.6602 46.5682 37.9102 47.2617 37.1602 47.2617H6.41016C5.66016 47.2617 4.91016 46.5682 4.91016 45.5278V5.99559C4.91016 4.95527 5.66016 4.26172 6.41016 4.26172H7.78516" stroke="#2F78C4" stroke-linecap="round" stroke-linejoin="round"/>
<path id="Vector_3" d="M41.6602 11.6367H32.6602C31.9102 11.6367 31.1602 10.8867 31.1602 10.1367V0.761719L41.6602 11.6367Z" stroke="#2F78C4" stroke-linecap="round" stroke-linejoin="round"/>
</g>
<g id="Group 55033">
<path id="Vector_4" d="M20.5705 14.6426H15.2498C15.0622 14.6426 14.9102 15.0263 14.9102 15.4997V18.7854C14.9102 19.2588 15.0622 19.6426 15.2498 19.6426H20.5705C20.7581 19.6426 20.9102 19.2588 20.9102 18.7854V15.4997C20.9102 15.0263 20.7581 14.6426 20.5705 14.6426Z" stroke="#2F78C4" stroke-linecap="round" stroke-linejoin="round"/>
<path id="Vector_5" d="M20.5705 24.4434H15.2498C15.0622 24.4434 14.9102 24.8271 14.9102 25.3005V28.5862C14.9102 29.0596 15.0622 29.4434 15.2498 29.4434H20.5705C20.7581 29.4434 20.9102 29.0596 20.9102 28.5862V25.3005C20.9102 24.8271 20.7581 24.4434 20.5705 24.4434Z" stroke="#2F78C4" stroke-linecap="round" stroke-linejoin="round"/>
<path id="Vector_6" d="M20.5705 34.2451H15.2498C15.0622 34.2451 14.9102 34.6289 14.9102 35.1023V38.388C14.9102 38.8614 15.0622 39.2451 15.2498 39.2451H20.5705C20.7581 39.2451 20.9102 38.8614 20.9102 38.388V35.1023C20.9102 34.6289 20.7581 34.2451 20.5705 34.2451Z" stroke="#2F78C4" stroke-linecap="round" stroke-linejoin="round"/>
</g>
<path id="Line 1203" d="M34.9102 15.3867C35.1863 15.3867 35.4102 15.1629 35.4102 14.8867C35.4102 14.6106 35.1863 14.3867 34.9102 14.3867V15.3867ZM23.9102 15.3867H34.9102V14.3867H23.9102V15.3867Z" fill="#2F78C4"/>
<path id="Line 1205" d="M34.9102 25.6914C35.1863 25.6914 35.4102 25.4675 35.4102 25.1914C35.4102 24.9153 35.1863 24.6914 34.9102 24.6914V25.6914ZM23.9102 25.6914H34.9102V24.6914H23.9102V25.6914Z" fill="#2F78C4"/>
<path id="Line 1207" d="M34.9102 35.4922C35.1863 35.4922 35.4102 35.2683 35.4102 34.9922C35.4102 34.716 35.1863 34.4922 34.9102 34.4922V35.4922ZM23.9102 35.4922H34.9102V34.4922H23.9102V35.4922Z" fill="#2F78C4"/>
<path id="Line 1204" d="M32.6602 17.8926C32.9363 17.8926 33.1602 17.6687 33.1602 17.3926C33.1602 17.1164 32.9363 16.8926 32.6602 16.8926V17.8926ZM23.9102 17.8926H32.6602V16.8926H23.9102V17.8926Z" fill="#2F78C4"/>
<path id="Line 1206" d="M32.6602 28.1973C32.9363 28.1973 33.1602 27.9734 33.1602 27.6973C33.1602 27.4211 32.9363 27.1973 32.6602 27.1973V28.1973ZM23.9102 28.1973H32.6602V27.1973H23.9102V28.1973Z" fill="#2F78C4"/>
<path id="Line 1208" d="M32.6602 37.998C32.9363 37.998 33.1602 37.7742 33.1602 37.498C33.1602 37.2219 32.9363 36.998 32.6602 36.998V37.998ZM23.9102 37.998H32.6602V36.998H23.9102V37.998Z" fill="#2F78C4"/>
</g>
</svg>
