<svg width="11" height="15" viewBox="0 0 11 15" fill="none" xmlns="http://www.w3.org/2000/svg">
<g id="lock">
<path id="Vector" d="M1.29735 14.1965C0.939299 14.1965 0.633482 14.0697 0.379901 13.8161C0.126308 13.5625 -0.000488281 13.2567 -0.000488281 12.8986V6.16097C-0.000488281 5.80292 0.126308 5.4971 0.379901 5.24352C0.633482 4.98992 0.939299 4.86313 1.29735 4.86313H2.15337V3.42722C2.15337 2.53071 2.4677 1.76813 3.09636 1.13947C3.72504 0.510804 4.48763 0.196472 5.38414 0.196472C6.28064 0.196472 7.04323 0.510804 7.67191 1.13947C8.30057 1.76813 8.61491 2.53071 8.61491 3.42722V4.86313H9.47092C9.82897 4.86313 10.1348 4.98992 10.3884 5.24352C10.642 5.4971 10.7688 5.80292 10.7688 6.16097V12.8986C10.7688 13.2567 10.642 13.5625 10.3884 13.8161C10.1348 14.0697 9.82897 14.1965 9.47092 14.1965H1.29735ZM1.29735 13.1196H9.47092C9.53535 13.1196 9.58829 13.0988 9.62971 13.0574C9.67114 13.016 9.69185 12.9631 9.69185 12.8986V6.16097C9.69185 6.09653 9.67114 6.0436 9.62971 6.00218C9.58829 5.96075 9.53535 5.94004 9.47092 5.94004H1.29735C1.23292 5.94004 1.17999 5.96075 1.13856 6.00218C1.09714 6.0436 1.07642 6.09653 1.07642 6.16097V12.8986C1.07642 12.9631 1.09714 13.016 1.13856 13.0574C1.17999 13.0988 1.23292 13.1196 1.29735 13.1196ZM5.38414 10.7862C5.73299 10.7862 6.0296 10.664 6.27397 10.4196C6.51835 10.1753 6.64054 9.87865 6.64054 9.5298C6.64054 9.18095 6.51835 8.88434 6.27397 8.63997C6.0296 8.39559 5.73299 8.2734 5.38414 8.2734C5.03528 8.2734 4.73867 8.39559 4.49431 8.63997C4.24993 8.88434 4.12774 9.18095 4.12774 9.5298C4.12774 9.87865 4.24993 10.1753 4.49431 10.4196C4.73867 10.664 5.03528 10.7862 5.38414 10.7862ZM3.23028 4.86313H7.53799V3.42722C7.53799 2.82893 7.32859 2.32038 6.90979 1.90157C6.49098 1.48277 5.98243 1.27336 5.38414 1.27336C4.78584 1.27336 4.27729 1.48277 3.85849 1.90157C3.43968 2.32038 3.23028 2.82893 3.23028 3.42722V4.86313Z" fill="white" fill-opacity="0.7"/>
</g>
</svg>
