<svg width="49" height="49" viewBox="0 0 49 49" fill="none" xmlns="http://www.w3.org/2000/svg">
<g id="Group 55064">
<g id="Group 55030">
<path id="Vector" d="M41.7031 12.2959V46.0459C41.7031 47.1709 40.9531 47.9209 40.2031 47.9209H9.45312C8.70312 47.9209 7.95312 47.1709 7.95312 46.0459V3.2959C7.95312 2.1709 8.70312 1.4209 9.45312 1.4209H31.2031" stroke="white" stroke-linecap="round" stroke-linejoin="round"/>
<path id="Vector_2" d="M41.7031 12.2959H32.7031C31.9531 12.2959 31.2031 11.5459 31.2031 10.7959V1.4209L41.7031 12.2959Z" stroke="white" stroke-linecap="round" stroke-linejoin="round"/>
</g>
<g id="Group 55068">
<g id="Group 55030_2">
<path id="Vector_3" d="M41.3228 12.2334V45.9834C41.3228 47.1084 40.5728 47.8584 39.8228 47.8584H9.07275C8.32275 47.8584 7.57275 47.1084 7.57275 45.9834V3.2334C7.57275 2.1084 8.32275 1.3584 9.07275 1.3584H30.8228" stroke="white" stroke-linecap="round" stroke-linejoin="round"/>
<path id="Vector_4" d="M41.3228 12.2334H32.3228C31.5728 12.2334 30.8228 11.4834 30.8228 10.7334V1.3584L41.3228 12.2334Z" stroke="white" stroke-linecap="round" stroke-linejoin="round"/>
</g>
<g id="Group 55032">
<path id="Vector_5" d="M24.4478 16.7334V32.4834" stroke="white" stroke-linecap="round" stroke-linejoin="round"/>
<path id="Vector_6" d="M16.7603 24.6084H32.1353" stroke="white" stroke-linecap="round" stroke-linejoin="round"/>
</g>
</g>
</g>
</svg>
