<svg width="26" height="25" viewBox="0 0 26 25" fill="none" xmlns="http://www.w3.org/2000/svg">
<g id="Icon01">
<path id="Vector" d="M13 11.5371C14.2944 11.5371 15.3438 10.4878 15.3438 9.19336C15.3438 7.89894 14.2944 6.84961 13 6.84961C11.7056 6.84961 10.6562 7.89894 10.6562 9.19336C10.6562 10.4878 11.7056 11.5371 13 11.5371Z" stroke="white" stroke-linecap="round" stroke-linejoin="round"/>
<path id="Vector_2" d="M19.0938 18.9434C19.0938 15.5777 16.3656 12.8496 13 12.8496C9.63437 12.8496 6.90625 15.5777 6.90625 18.9434H19.0938Z" stroke="white" stroke-linecap="round" stroke-linejoin="round"/>
<path id="Vector_3" d="M20.4062 11.7246C21.2865 11.7246 22 11.0111 22 10.1309C22 9.25066 21.2865 8.53711 20.4062 8.53711C19.526 8.53711 18.8125 9.25066 18.8125 10.1309C18.8125 11.0111 19.526 11.7246 20.4062 11.7246Z" stroke="white" stroke-linecap="round" stroke-linejoin="round"/>
<path id="Vector_4" d="M19 16.8809H24.625C24.625 14.5502 22.7369 12.6621 20.4062 12.6621C19.0262 12.6621 17.8 13.324 17.0312 14.3496" stroke="white" stroke-linecap="round" stroke-linejoin="round"/>
<path id="Vector_5" d="M5.59375 11.7246C6.47395 11.7246 7.1875 11.0111 7.1875 10.1309C7.1875 9.25066 6.47395 8.53711 5.59375 8.53711C4.71355 8.53711 4 9.25066 4 10.1309C4 11.0111 4.71355 11.7246 5.59375 11.7246Z" stroke="white" stroke-linecap="round" stroke-linejoin="round"/>
<path id="Vector_6" d="M8.96875 14.3496C8.2 13.3259 6.97375 12.6621 5.59375 12.6621C3.26312 12.6621 1.375 14.5502 1.375 16.8809H7.1875" stroke="white" stroke-linecap="round" stroke-linejoin="round"/>
</g>
</svg>
