<svg width="1307" height="96" viewBox="0 0 1307 96" fill="none" xmlns="http://www.w3.org/2000/svg">
<path d="M0.828125 8.75879C0.828125 4.34051 4.40985 0.758789 8.82813 0.758789H1298.83C1303.25 0.758789 1306.83 4.34051 1306.83 8.75879V95.8391H0.828125V8.75879Z" fill="#2E308E"/>
<mask id="mask0_3712_9084" style="mask-type:alpha" maskUnits="userSpaceOnUse" x="0" y="0" width="1307" height="96">
<path d="M0.828125 8.75879C0.828125 4.34051 4.40985 0.758789 8.82813 0.758789H1298.83C1303.25 0.758789 1306.83 4.34051 1306.83 8.75879V95.8391H0.828125V8.75879Z" fill="#2E308E"/>
</mask>
<g mask="url(#mask0_3712_9084)">
<path fill-rule="evenodd" clip-rule="evenodd" d="M1016.6 149.851H1193.43L1264.23 50.1736L1137.5 -25.1416L1016.6 149.851Z" fill="url(#paint0_linear_3712_9084)"/>
<path fill-rule="evenodd" clip-rule="evenodd" d="M1311.14 78.6274V-25.1436H1311.16L1311.08 -25.2637H1137.11L1311.14 78.6274Z" fill="url(#paint1_linear_3712_9084)"/>
<path fill-rule="evenodd" clip-rule="evenodd" d="M237.797 95.8154H0.828125L162.845 330.525L332.457 229.39L237.797 95.8154Z" fill="url(#paint2_linear_3712_9084)"/>
<path fill-rule="evenodd" clip-rule="evenodd" d="M0.828125 95.8164H237.797L332.67 -37.758L162.845 -138.686L0.828125 95.8164Z" fill="url(#paint3_linear_3712_9084)"/>
</g>
<defs>
<linearGradient id="paint0_linear_3712_9084" x1="1015.83" y1="50.2412" x2="1262.76" y2="50.2412" gradientUnits="userSpaceOnUse">
<stop stop-color="#090086"/>
<stop offset="1" stop-color="#2F96A9"/>
</linearGradient>
<linearGradient id="paint1_linear_3712_9084" x1="1121.98" y1="50.1207" x2="1414.3" y2="50.1207" gradientUnits="userSpaceOnUse">
<stop stop-color="#3B62CA"/>
<stop offset="1" stop-color="#93DFE3"/>
</linearGradient>
<linearGradient id="paint2_linear_3712_9084" x1="-4.63612" y1="197.138" x2="326.016" y2="197.138" gradientUnits="userSpaceOnUse">
<stop stop-color="#3D54CE"/>
<stop offset="1" stop-color="#35CACF"/>
</linearGradient>
<linearGradient id="paint3_linear_3712_9084" x1="-0.197354" y1="-37.6673" x2="330.702" y2="-37.6673" gradientUnits="userSpaceOnUse">
<stop stop-color="#090086"/>
<stop offset="1" stop-color="#2F96A9"/>
</linearGradient>
</defs>
</svg>
