<svg width="32" height="32" viewBox="0 0 32 32" fill="none" xmlns="http://www.w3.org/2000/svg">
<path d="M8.69333 19.2432C8.44718 18.7251 8.27009 18.1991 8.16205 17.6653C8.05402 17.1314 8 16.5877 8 16.0339C8 13.8232 8.78188 11.9307 10.3456 10.3566C11.9094 8.78249 13.7942 7.99543 16 7.99543H17.9262L15.4851 5.54891L16.0328 5L19.4318 8.40659L16.0328 11.7926L15.479 11.2375L17.8933 8.81777H16C14.0157 8.81777 12.3231 9.52328 10.9221 10.9343C9.52102 12.3453 8.82051 14.0452 8.82051 16.0339C8.82051 16.4821 8.86256 16.931 8.94667 17.3805C9.03077 17.8301 9.14394 18.2529 9.28616 18.649L8.69333 19.2432ZM15.9549 27L12.5559 23.5934L15.9549 20.2074L16.4821 20.7358L14.0615 23.1823H16C17.9843 23.1823 19.6769 22.4767 21.0779 21.0657C22.479 19.6547 23.1795 17.9548 23.1795 15.9661C23.1795 15.5179 23.1419 15.0691 23.0667 14.6195C22.9914 14.17 22.8718 13.7471 22.7077 13.351L23.3005 12.7569C23.533 13.2749 23.7077 13.8009 23.8246 14.3348C23.9415 14.8686 24 15.4124 24 15.9661C24 18.1769 23.2181 20.0693 21.6544 21.6434C20.0906 23.2175 18.2058 24.0046 16 24.0046H14.0615L16.4821 26.4511L15.9549 27Z" fill="#000048" stroke="#000048" stroke-width="0.25"/>
</svg>
