<svg width="26" height="24" viewBox="0 0 26 24" fill="none" xmlns="http://www.w3.org/2000/svg">
<g id="Icon01">
<path id="Vector" d="M13 10.875C14.2944 10.875 15.3438 9.82567 15.3438 8.53125C15.3438 7.23683 14.2944 6.1875 13 6.1875C11.7056 6.1875 10.6562 7.23683 10.6562 8.53125C10.6562 9.82567 11.7056 10.875 13 10.875Z" stroke="#000048" stroke-linecap="round" stroke-linejoin="round"/>
<path id="Vector_2" d="M19.0938 18.2812C19.0938 14.9156 16.3656 12.1875 13 12.1875C9.63437 12.1875 6.90625 14.9156 6.90625 18.2812H19.0938Z" stroke="#000048" stroke-linecap="round" stroke-linejoin="round"/>
<path id="Vector_3" d="M20.4062 11.0625C21.2865 11.0625 22 10.349 22 9.46875C22 8.58855 21.2865 7.875 20.4062 7.875C19.526 7.875 18.8125 8.58855 18.8125 9.46875C18.8125 10.349 19.526 11.0625 20.4062 11.0625Z" stroke="#000048" stroke-linecap="round" stroke-linejoin="round"/>
<path id="Vector_4" d="M19 16.2188H24.625C24.625 13.8881 22.7369 12 20.4062 12C19.0262 12 17.8 12.6619 17.0312 13.6875" stroke="#000048" stroke-linecap="round" stroke-linejoin="round"/>
<path id="Vector_5" d="M5.59375 11.0625C6.47395 11.0625 7.1875 10.349 7.1875 9.46875C7.1875 8.58855 6.47395 7.875 5.59375 7.875C4.71355 7.875 4 8.58855 4 9.46875C4 10.349 4.71355 11.0625 5.59375 11.0625Z" stroke="#000048" stroke-linecap="round" stroke-linejoin="round"/>
<path id="Vector_6" d="M8.96875 13.6875C8.2 12.6637 6.97375 12 5.59375 12C3.26312 12 1.375 13.8881 1.375 16.2188H7.1875" stroke="#000048" stroke-linecap="round" stroke-linejoin="round"/>
</g>
</svg>
