<svg width="12" height="15" viewBox="0 0 12 15" fill="none" xmlns="http://www.w3.org/2000/svg">
<path id="Vector" d="M1.62323 9.88206C1.37878 9.4662 1.19545 9.0394 1.07323 8.60166C0.951004 8.16392 0.889893 7.71523 0.889893 7.2556C0.889893 5.78916 1.40656 4.54159 2.43989 3.51289C3.47323 2.48419 4.73434 1.96985 6.22323 1.96985H6.33989L5.27323 0.919261L6.20656 0L8.87323 2.62646L6.20656 5.25292L5.27323 4.33366L6.33989 3.28308H6.22323C5.11211 3.28308 4.16767 3.66884 3.38989 4.44036C2.61211 5.21188 2.22323 6.1503 2.22323 7.2556C2.22323 7.54013 2.25656 7.81919 2.32323 8.09278C2.38989 8.36637 2.48989 8.63449 2.62323 8.89714L1.62323 9.88206ZM6.23989 14.4455L3.57323 11.8191L6.23989 9.19261L7.17323 10.1119L6.10656 11.1625H6.22323C7.33434 11.1625 8.27878 10.7767 9.05656 10.0052C9.83434 9.23365 10.2232 8.29524 10.2232 7.18994C10.2232 6.9054 10.1899 6.62634 10.1232 6.35275C10.0566 6.07916 9.95656 5.81104 9.82323 5.5484L10.8232 4.56348C11.0677 4.97933 11.251 5.40613 11.3732 5.84388C11.4954 6.28162 11.5566 6.73031 11.5566 7.18994C11.5566 8.65638 11.0399 9.90395 10.0066 10.9326C8.97323 11.9613 7.71212 12.4757 6.22323 12.4757H6.10656L7.17323 13.5263L6.23989 14.4455Z" fill="#2F78C4"/>
</svg>
