<svg width="26" height="26" viewBox="0 0 26 26" fill="none" xmlns="http://www.w3.org/2000/svg">
<g id="save">
<path id="Vector" d="M22.4766 8.01661L18.5703 4.11036C18.4973 4.03796 18.4107 3.98067 18.3156 3.94179C18.2204 3.90291 18.1184 3.88321 18.0156 3.8838H5.51562C5.10122 3.8838 4.7038 4.04842 4.41077 4.34145C4.11774 4.63447 3.95313 5.0319 3.95312 5.4463V21.0713C3.95313 21.4857 4.11774 21.8831 4.41077 22.1762C4.7038 22.4692 5.10122 22.6338 5.51562 22.6338H21.1406C21.555 22.6338 21.9525 22.4692 22.2455 22.1762C22.5385 21.8831 22.7031 21.4857 22.7031 21.0713V8.5713C22.7037 8.46848 22.684 8.36656 22.6451 8.27138C22.6063 8.17619 22.549 8.08961 22.4766 8.01661ZM10.2031 5.4463H16.4531V8.5713H10.2031V5.4463ZM16.4531 21.0713H10.2031V14.8213H16.4531V21.0713ZM18.0156 21.0713V14.8213C18.0156 14.4069 17.851 14.0095 17.558 13.7164C17.265 13.4234 16.8675 13.2588 16.4531 13.2588H10.2031C9.78872 13.2588 9.3913 13.4234 9.09827 13.7164C8.80525 14.0095 8.64062 14.4069 8.64062 14.8213V21.0713H5.51562V5.4463H8.64062V8.5713C8.64062 8.9857 8.80525 9.38313 9.09827 9.67616C9.3913 9.96918 9.78872 10.1338 10.2031 10.1338H16.4531C16.8675 10.1338 17.265 9.96918 17.558 9.67616C17.851 9.38313 18.0156 8.9857 18.0156 8.5713V5.76661L21.1406 8.89161V21.0713H18.0156Z" fill="white"/>
</g>
</svg>
