<svg width="19" height="19" viewBox="0 0 19 19" fill="none" xmlns="http://www.w3.org/2000/svg">
<g id="Group 55048">
<path id="Vector" d="M13.4024 9.17994L11.1653 6.38351C11.0449 6.23316 10.8923 6.11178 10.7187 6.02833C10.5451 5.94488 10.355 5.90149 10.1624 5.90137H2.11384C1.77285 5.90137 1.44582 6.03683 1.2047 6.27794C0.963584 6.51906 0.828125 6.84609 0.828125 7.18708V17.4728C0.828125 17.8138 0.963584 18.1408 1.2047 18.3819C1.44582 18.6231 1.77285 18.7585 2.11384 18.7585H12.3996C12.7405 18.7585 13.0676 18.6231 13.3087 18.3819C13.5498 18.1408 13.6853 17.8138 13.6853 17.4728V9.98351C13.685 9.69129 13.5853 9.40787 13.4024 9.17994ZM5.32812 7.18708H9.18527V9.11565H5.32812V7.18708ZM9.18527 17.4728H5.32812V13.6157H9.18527V17.4728ZM10.471 17.4728V13.6157C10.471 13.2747 10.3355 12.9476 10.0944 12.7065C9.85329 12.4654 9.52626 12.3299 9.18527 12.3299H5.32812C4.98713 12.3299 4.66011 12.4654 4.41899 12.7065C4.17787 12.9476 4.04241 13.2747 4.04241 13.6157V17.4728H2.11384V7.18708H4.04241V9.11565C4.04241 9.45665 4.17787 9.78367 4.41899 10.0248C4.66011 10.2659 4.98713 10.4014 5.32812 10.4014H9.18527C9.52626 10.4014 9.85329 10.2659 10.0944 10.0248C10.3355 9.78367 10.471 9.45665 10.471 9.11565V7.5728L12.3996 9.98351V17.4728H10.471Z" fill="white"/>
<path id="Vector_2" d="M17.5428 12.3302H15.6142V11.0445H17.5428V2.0445H4.68562V3.97307H3.3999V2.0445C3.3999 1.70351 3.53536 1.37648 3.77648 1.13537C4.0176 0.894248 4.34462 0.758789 4.68562 0.758789H17.5428C17.8838 0.758789 18.2108 0.894248 18.4519 1.13537C18.693 1.37648 18.8285 1.70351 18.8285 2.0445V11.0445C18.8285 11.3855 18.693 11.7125 18.4519 11.9536C18.2108 12.1948 17.8838 12.3302 17.5428 12.3302Z" fill="white"/>
<path id="Vector_3" d="M12.3999 3.33008H16.257V4.61579H12.3999V3.33008Z" fill="white"/>
<path id="Vector_4" d="M13.6855 5.90137H16.257V7.18708H13.6855V5.90137Z" fill="white"/>
</g>
</svg>
