<svg width="164" height="15" viewBox="0 0 164 15" fill="none" xmlns="http://www.w3.org/2000/svg">
<g id="Socials">
<g id="Group 55035">
<g id="STYLE = COLOR">
<path id="Vector" d="M8.07273 5.25111C8.04584 5.22257 8.02888 5.18615 8.02439 5.14727C8.0199 5.10838 8.0281 5.06908 8.04779 5.0352C8.05546 5.02196 8.06479 5.00975 8.07556 4.99886L11.8211 1.26198C11.856 1.22722 11.8976 1.19984 11.9433 1.18147C11.9891 1.16311 12.0381 1.15414 12.0874 1.1551C12.1367 1.15606 12.1853 1.16694 12.2303 1.18707C12.2753 1.20721 12.3158 1.23619 12.3493 1.27228C13.4483 2.45626 14.2402 3.88983 14.6562 5.44826L12.389 7.99997L9.01735 6.94822C8.84517 6.31463 8.52099 5.73221 8.07273 5.25111Z" fill="#B0B0B0"/>
<path id="Vector_2" d="M16.4512 5.35832C16.4399 5.3109 16.4192 5.26622 16.3903 5.22693C16.3614 5.18763 16.3248 5.15453 16.2828 5.12957C16.2408 5.10461 16.1942 5.0883 16.1457 5.08162C16.0973 5.07494 16.048 5.07802 16.0007 5.09068L9.01685 6.94895C9.20284 7.64174 9.20331 8.371 9.0182 9.06404L11.3474 11.9545L14.6628 10.5754L15.9989 10.9332C16.0461 10.9459 16.0955 10.9491 16.144 10.9425C16.1925 10.9358 16.2391 10.9196 16.2812 10.8946C16.3233 10.8697 16.3599 10.8366 16.3888 10.7973C16.4178 10.758 16.4386 10.7133 16.4499 10.6659C16.8565 8.91993 16.857 7.10447 16.4512 5.35832Z" fill="#808080"/>
<path id="Vector_3" d="M9.01822 9.0639C8.84841 9.69586 8.52751 10.2775 8.08297 10.759C8.04979 10.7935 8.03149 10.8395 8.03199 10.8872C8.0325 10.935 8.05177 10.9806 8.08567 11.0143L11.8297 14.7383C11.8646 14.7729 11.906 14.8002 11.9516 14.8185C11.9973 14.8369 12.0461 14.8458 12.0953 14.8449C12.1445 14.844 12.193 14.8332 12.2379 14.8132C12.2828 14.7932 12.3232 14.7643 12.3567 14.7284C13.4532 13.5516 14.2448 12.126 14.6628 10.5753L9.01822 9.0639Z" fill="#707070"/>
<path id="Vector_4" opacity="0.1" d="M10.9054 11.7917V4.64582C10.905 4.49125 10.8431 4.34314 10.7334 4.23385C10.6237 4.12455 10.475 4.06295 10.3198 4.0625H9.00489L8.07557 4.98968C8.06479 5.00056 8.05546 5.01277 8.0478 5.02602C8.02811 5.05989 8.0199 5.09919 8.02439 5.13808C8.02888 5.17696 8.04583 5.21338 8.07273 5.24191C8.52099 5.72303 8.84517 6.30546 9.01735 6.93906L9.01883 6.93914L9.01676 6.93971C9.20269 7.63251 9.20316 8.36175 9.01813 9.05479C8.96977 9.23503 8.90892 9.41171 8.83601 9.58356C8.65399 10.0125 8.39923 10.407 8.0829 10.7498C8.04971 10.7843 8.03141 10.8303 8.03192 10.878C8.03243 10.9258 8.0517 10.9714 8.08561 11.0052L9.46286 12.375H10.3198C10.475 12.3745 10.6237 12.3129 10.7334 12.2036C10.8431 12.0943 10.905 11.9462 10.9054 11.7917Z" fill="black"/>
<path id="Vector_5" opacity="0.2" d="M10.4662 12.2292V5.08332C10.4658 4.92875 10.4039 4.78064 10.2942 4.67135C10.1845 4.56205 10.0358 4.50045 9.88063 4.5H8.56639L8.07557 4.98968C8.06479 5.00056 8.05546 5.01277 8.0478 5.02602C8.02811 5.05989 8.0199 5.09919 8.02439 5.13808C8.02888 5.17696 8.04583 5.21338 8.07273 5.24191C8.52099 5.72303 8.84517 6.30546 9.01735 6.93906L9.01882 6.93914L9.01676 6.93971C9.20268 7.63251 9.20315 8.36175 9.01813 9.05479C8.96977 9.23503 8.90892 9.41171 8.83601 9.58356C8.65399 10.0125 8.39923 10.407 8.08289 10.7498C8.04971 10.7843 8.03141 10.8303 8.03192 10.878C8.03242 10.9258 8.0517 10.9714 8.0856 11.0052L9.90216 12.812C10.0535 12.806 10.1966 12.742 10.3017 12.6334C10.4068 12.5248 10.4658 12.38 10.4662 12.2292Z" fill="black"/>
<path id="Vector_6" opacity="0.2" d="M10.4662 11.3542V5.08332C10.4658 4.92875 10.4039 4.78064 10.2942 4.67135C10.1845 4.56205 10.0358 4.50045 9.88063 4.5H8.56639L8.07557 4.98968C8.06479 5.00056 8.05546 5.01277 8.0478 5.02602C8.02811 5.05989 8.0199 5.09919 8.02439 5.13808C8.02888 5.17696 8.04583 5.21338 8.07273 5.24191C8.52099 5.72303 8.84517 6.30546 9.01735 6.93906L9.01882 6.93914L9.01676 6.93971C9.20268 7.63251 9.20315 8.36175 9.01813 9.05479C8.96977 9.23503 8.90892 9.41171 8.83601 9.58356C8.65399 10.0125 8.39923 10.407 8.08289 10.7498C8.04971 10.7843 8.03141 10.8303 8.03192 10.878C8.03242 10.9258 8.0517 10.9714 8.0856 11.0052L9.023 11.9375H9.88063C10.0358 11.937 10.1845 11.8754 10.2942 11.7661C10.4039 11.6568 10.4658 11.5087 10.4662 11.3542Z" fill="black"/>
<path id="Vector_7" opacity="0.2" d="M10.027 11.3542V5.08332C10.0266 4.92875 9.96474 4.78064 9.85502 4.67135C9.74529 4.56205 9.59661 4.50045 9.44144 4.5H8.56639L8.07557 4.98968C8.06479 5.00056 8.05546 5.01277 8.0478 5.02602C8.02811 5.05989 8.0199 5.09919 8.02439 5.13808C8.02888 5.17696 8.04583 5.21338 8.07273 5.24191C8.52099 5.72303 8.84517 6.30546 9.01735 6.93906L9.01882 6.93914L9.01676 6.93971C9.20268 7.63251 9.20315 8.36175 9.01813 9.05479C8.96977 9.23503 8.90892 9.41171 8.83601 9.58356C8.65399 10.0125 8.39923 10.407 8.08289 10.7498C8.04971 10.7843 8.03141 10.8303 8.03192 10.878C8.03242 10.9258 8.0517 10.9714 8.0856 11.0052L9.023 11.9375H9.44144C9.59661 11.937 9.7453 11.8754 9.85502 11.7661C9.96474 11.6568 10.0266 11.5087 10.027 11.3542Z" fill="black"/>
<path id="Back Plate" d="M3.58558 4.5H9.44144C9.59674 4.5 9.74569 4.56146 9.8555 4.67086C9.96532 4.78026 10.027 4.92863 10.027 5.08334V10.9167C10.027 11.0714 9.96532 11.2197 9.8555 11.3291C9.74569 11.4385 9.59675 11.5 9.44144 11.5H3.58559C3.43028 11.5 3.28133 11.4385 3.17151 11.3291C3.0617 11.2197 3 11.0714 3 10.9167V5.08333C3 4.92862 3.0617 4.78025 3.17151 4.67085C3.28133 4.56146 3.43028 4.5 3.58558 4.5Z" fill="#707070"/>
<path id="Vector_8" d="M6.43715 7.67965C6.47813 7.76381 6.51094 7.85167 6.53516 7.94203H6.54437C6.56648 7.85339 6.59832 7.76745 6.63931 7.68576L7.52763 6.0191C7.56088 5.95672 7.61055 5.90453 7.67131 5.86813C7.73208 5.83173 7.80164 5.8125 7.87255 5.8125C7.94103 5.8125 8.00831 5.83045 8.06763 5.86453C8.12696 5.89861 8.17625 5.94763 8.21055 6.00667C8.24485 6.06572 8.26296 6.13271 8.26307 6.20093C8.26318 6.26915 8.24528 6.3362 8.21116 6.39535L6.98216 8.52628C6.94814 8.58525 6.93025 8.65208 6.93025 8.72009V9.79846C6.93025 9.90164 6.8891 10.0006 6.81586 10.0736C6.74262 10.1465 6.64328 10.1875 6.5397 10.1875H6.46018C6.40889 10.1875 6.3581 10.1774 6.31072 10.1579C6.26334 10.1383 6.22028 10.1097 6.18402 10.0736C6.14775 10.0374 6.11899 9.99454 6.09936 9.94734C6.07973 9.90014 6.06963 9.84955 6.06963 9.79846V8.73281C6.06963 8.66641 6.05257 8.60111 6.02007 8.54313L4.81372 6.39122C4.78053 6.33201 4.76345 6.26519 4.76418 6.19737C4.76491 6.12955 4.78343 6.06311 4.81789 6.00462C4.85235 5.94613 4.90156 5.89763 4.96064 5.86393C5.01972 5.83023 5.08662 5.8125 5.1547 5.8125H5.23147C5.30314 5.8125 5.37342 5.83214 5.43463 5.86928C5.49584 5.90642 5.5456 5.95962 5.57848 6.02305L6.43715 7.67965Z" fill="#D9D9D9"/>
</g>
</g>
<g id="Group 55031">
<g id="Group">
<path id="Vector_9" d="M36.1112 4.67017H33V14.9465H36.1112V4.67017Z" fill="#707070"/>
<path id="Vector_10" d="M43.4992 4.67017C41.3284 4.67017 40.955 5.4174 40.7777 6.13822V4.67017H37.6665V14.9465H40.7777V9.07431C40.7777 8.12228 41.3245 7.60626 42.3333 7.60626C43.318 7.60626 43.8889 8.11127 43.8889 9.07431V14.9465H47V9.80834C47 6.87224 46.5948 4.67017 43.4992 4.67017Z" fill="#707070"/>
<path id="Vector_11" d="M34.5556 3.9361C35.4147 3.9361 36.1112 3.27883 36.1112 2.46805C36.1112 1.65727 35.4147 1 34.5556 1C33.6965 1 33 1.65727 33 2.46805C33 3.27883 33.6965 3.9361 34.5556 3.9361Z" fill="#707070"/>
</g>
</g>
<g id="Group 55033">
<g id="Group 55032">
<g id="Group_2">
<g id="Group_3">
<path id="Vector_12" d="M77 3.4C76.5135 3.66923 75.9189 3.83077 75.3784 3.88462C75.973 3.50769 76.4054 2.91539 76.6216 2.21538C76.0811 2.53846 75.4865 2.80769 74.7838 2.96923C74.2432 2.37692 73.5405 2 72.7297 2C71.1622 2 69.8649 3.34616 69.8649 5.06924C69.8649 5.28462 69.8649 5.55385 69.9189 5.76924C67.5405 5.66155 65.4324 4.42308 64.027 2.59231C63.7568 3.02308 63.6486 3.56154 63.6486 4.15385C63.6486 5.23078 64.1351 6.14616 64.8919 6.68462C64.4054 6.68462 63.973 6.52309 63.5946 6.3077V6.36155C63.5946 7.8154 64.5676 9.05386 65.8649 9.37694C65.6486 9.43078 65.3784 9.48463 65.1081 9.48463C64.9459 9.48463 64.7297 9.48463 64.5676 9.43078C64.9459 10.6692 65.973 11.5308 67.2162 11.5308C66.2432 12.3385 65 12.8231 63.7027 12.8231C63.4865 12.8231 63.2703 12.8231 63 12.7693C64.2432 13.6308 65.7568 14.1693 67.3784 14.1693C72.6216 14.1693 75.4865 9.53848 75.4865 5.50001C75.4865 5.39231 75.4865 5.23078 75.4865 5.12308C76.1351 4.58462 76.6216 4.04616 77 3.4Z" fill="#707070"/>
</g>
</g>
</g>
</g>
<g id="Group 55034">
<path id="Vector_13" d="M106.708 4.52441C106.547 3.92434 106.072 3.45183 105.47 3.29145C104.378 3 100 3 100 3C100 3 95.6221 3 94.5302 3.29145C93.9279 3.45183 93.4535 3.92434 93.2925 4.52441C93 5.61199 93 7.88125 93 7.88125C93 7.88125 93 10.1504 93.2925 11.2379C93.4535 11.838 93.9279 12.3106 94.5302 12.471C95.6221 12.7623 100 12.7623 100 12.7623C100 12.7623 104.378 12.7623 105.47 12.471C106.072 12.3106 106.547 11.838 106.708 11.2379C107 10.1504 107 7.88125 107 7.88125C107 7.88125 107 5.61199 106.708 4.52441ZM98.5999 9.9732V5.78926L102.237 7.88125L98.5999 9.9732Z" fill="#707070"/>
</g>
<g id="Group 55030">
<g id="Group_4">
<path id="f" d="M130.082 15V8.61268H132.844L133.259 6.12404H130.082V4.53422C130.082 3.81352 130.339 3.32206 131.671 3.32206H133.369V1.0973C133.076 1.06762 132.067 1 130.894 1C128.446 1 126.769 2.15938 126.769 4.29014V6.12569H124V8.61432H126.769V15H130.082Z" fill="#707070"/>
</g>
</g>
<g id="Group 55029">
<g id="Group_5">
<path id="Vector_14" d="M157 1C155.099 1 154.861 1.00806 154.114 1.04212C153.369 1.07614 152.86 1.19445 152.415 1.3675C151.954 1.54639 151.564 1.78575 151.175 2.1749C150.786 2.56405 150.546 2.95442 150.367 3.41473C150.194 3.85999 150.076 4.36884 150.042 5.11391C150.008 5.86053 150 6.09891 150 8.00001C150 9.90109 150.008 10.1395 150.042 10.8861C150.076 11.6312 150.194 12.14 150.367 12.5853C150.546 13.0456 150.786 13.436 151.175 13.8251C151.564 14.2143 151.954 14.4536 152.415 14.6325C152.86 14.8055 153.369 14.9239 154.114 14.9579C154.861 14.9919 155.099 15 157 15C158.901 15 159.139 14.9919 159.886 14.9579C160.631 14.9239 161.14 14.8055 161.585 14.6325C162.046 14.4536 162.436 14.2143 162.825 13.8251C163.214 13.436 163.454 13.0456 163.633 12.5853C163.806 12.14 163.924 11.6312 163.958 10.8861C163.992 10.1395 164 9.90109 164 8.00001C164 6.09891 163.992 5.86053 163.958 5.11391C163.924 4.36884 163.806 3.85999 163.633 3.41473C163.454 2.95442 163.214 2.56405 162.825 2.1749C162.436 1.78575 162.046 1.54639 161.585 1.3675C161.14 1.19445 160.631 1.07614 159.886 1.04212C159.139 1.00806 158.901 1 157 1ZM157 2.26129C158.869 2.26129 159.09 2.2684 159.829 2.30208C160.511 2.33323 160.882 2.44726 161.128 2.5431C161.455 2.67008 161.688 2.8218 161.933 3.06674C162.178 3.31167 162.33 3.54489 162.457 3.8716C162.553 4.11826 162.667 4.48891 162.698 5.1714C162.732 5.90952 162.739 6.13092 162.739 8.00001C162.739 9.86908 162.732 10.0905 162.698 10.8286C162.667 11.5111 162.553 11.8817 162.457 12.1284C162.33 12.4551 162.178 12.6883 161.933 12.9333C161.688 13.1782 161.455 13.3299 161.128 13.4569C160.882 13.5528 160.511 13.6668 159.829 13.6979C159.091 13.7316 158.869 13.7387 157 13.7387C155.131 13.7387 154.909 13.7316 154.171 13.6979C153.489 13.6668 153.118 13.5528 152.872 13.4569C152.545 13.3299 152.312 13.1782 152.067 12.9333C151.822 12.6883 151.67 12.4551 151.543 12.1284C151.447 11.8817 151.333 11.5111 151.302 10.8286C151.268 10.0905 151.261 9.86908 151.261 8.00001C151.261 6.13092 151.268 5.90952 151.302 5.1714C151.333 4.48891 151.447 4.11826 151.543 3.8716C151.67 3.54489 151.822 3.31167 152.067 3.06674C152.312 2.8218 152.545 2.67008 152.872 2.5431C153.118 2.44726 153.489 2.33323 154.171 2.30208C154.91 2.2684 155.131 2.26129 157 2.26129Z" fill="#707070"/>
<path id="Vector_15" d="M157 10.3333C155.711 10.3333 154.666 9.28866 154.666 8C154.666 6.71132 155.711 5.66665 157 5.66665C158.288 5.66665 159.333 6.71132 159.333 8C159.333 9.28866 158.288 10.3333 157 10.3333ZM157 4.4054C155.014 4.4054 153.405 6.01474 153.405 8C153.405 9.98524 155.014 11.5946 157 11.5946C158.985 11.5946 160.594 9.98524 160.594 8C160.594 6.01474 158.985 4.4054 157 4.4054Z" fill="#707070"/>
<path id="Vector_16" d="M161.576 4.26333C161.576 4.72725 161.2 5.10331 160.736 5.10331C160.273 5.10331 159.896 4.72725 159.896 4.26333C159.896 3.7994 160.273 3.42334 160.736 3.42334C161.2 3.42334 161.576 3.7994 161.576 4.26333Z" fill="#707070"/>
</g>
</g>
</g>
</svg>
