<svg width="19" height="18" viewBox="0 0 19 18" fill="none" xmlns="http://www.w3.org/2000/svg">
<g id="webcast-midnight-blue 1" clip-path="url(#clip0_3587_9429)">
<path id="Vector" d="M1.70797 14.0625L0.284668 15.6094L17.9692 15.6797L16.5103 13.957" stroke="#000048" stroke-linecap="round" stroke-linejoin="round"/>
<path id="Vector_2" d="M14.66 2.39062H3.41598C2.62991 2.39062 1.99268 3.02022 1.99268 3.79688V10.9688C1.99268 11.7454 2.62991 12.375 3.41598 12.375H14.66C15.4461 12.375 16.0833 11.7454 16.0833 10.9688V3.79688C16.0833 3.02022 15.4461 2.39062 14.66 2.39062Z" stroke="#000048" stroke-linecap="round" stroke-linejoin="round"/>
<path id="Vector_3" d="M11.9557 10.2656C11.9557 8.71172 10.6818 7.45312 9.10905 7.45312C7.5363 7.45312 6.26245 8.71172 6.26245 10.2656H11.9557Z" stroke="#000048" stroke-miterlimit="10"/>
<path id="Vector_4" d="M9.1091 6.46875C9.81656 6.46875 10.3901 5.90211 10.3901 5.20312C10.3901 4.50414 9.81656 3.9375 9.1091 3.9375C8.40163 3.9375 7.82812 4.50414 7.82812 5.20312C7.82812 5.90211 8.40163 6.46875 9.1091 6.46875Z" stroke="#000048" stroke-miterlimit="10"/>
</g>
<defs>
<clipPath id="clip0_3587_9429">
<rect width="18.2182" height="18" fill="white"/>
</clipPath>
</defs>
</svg>
