<svg width="28" height="49" viewBox="0 0 28 49" fill="none" xmlns="http://www.w3.org/2000/svg">
<g id="Group 40677">
<path id="Icon awesome-caret-down" d="M1.13798 46.568C0.855719 46.1479 0.703494 45.6539 0.700293 45.1477L0.700291 3.5676C0.703492 3.06146 0.855717 2.56746 1.13798 2.14729C1.42057 1.72664 1.82094 1.39867 2.28899 1.20443C2.75704 1.01019 3.27198 0.958305 3.76937 1.05526C4.26613 1.15209 4.72335 1.39309 5.08396 1.74816C5.08442 1.74862 5.08489 1.74907 5.08535 1.74953L25.88 22.5304C25.88 22.5305 25.8801 22.5305 25.8801 22.5306C26.3632 23.0159 26.6344 23.6729 26.6344 24.3577C26.6344 25.0425 26.3632 25.6994 25.8801 26.1848C25.8801 26.1848 25.88 26.1849 25.88 26.1849L5.08535 46.9658C5.08487 46.9663 5.08439 46.9668 5.08391 46.9672C4.7233 47.3223 4.26611 47.5632 3.76938 47.6601C3.27198 47.757 2.75704 47.7051 2.28899 47.5109C1.82094 47.3167 1.42057 46.9887 1.13798 46.568Z" stroke="#06C7CC" stroke-width="1.3"/>
</g>
</svg>
